<?xml version="1.0" standalone="no"?>
<!DOCTYPE svg PUBLIC "-//W3C//DTD SVG 1.1//EN" "http://www.w3.org/Graphics/SVG/1.1/DTD/svg11.dtd" >
<svg xmlns="http://www.w3.org/2000/svg" xmlns:xlink="http://www.w3.org/1999/xlink" version="1.1">
<metadata></metadata>
<defs>
<font id="eurostylenormal" horiz-adv-x="549" >
<font-face units-per-em="2048" ascent="1638" descent="-410" />
<missing-glyph horiz-adv-x="500" />
<glyph horiz-adv-x="0" />
<glyph unicode="&#xd;" horiz-adv-x="0" />
<glyph unicode=" " />
<glyph unicode="!" horiz-adv-x="223" d="M10 1256h152l-16 -910h-122zM18 0v172h148v-172h-148z" />
<glyph unicode="&#x22;" horiz-adv-x="497" d="M4 1256h154l-25 -502h-109zM278 1256h158l-24 -502h-109z" />
<glyph unicode="#" horiz-adv-x="987" d="M20 436l10 76h238l29 211h-237l14 78h233l49 342h78l-49 -342h221l46 342h81l-49 -342h240l-10 -78h-240l-29 -211h235l-6 -76h-243l-53 -372h-74l53 372h-221l-54 -372h-82l54 372h-234zM346 512h217l33 211h-224z" />
<glyph unicode="$" horiz-adv-x="1108" d="M6 348v43h140q0 -128 22 -183.5t78 -71.5t190 -20h43v462q-152 0 -246 18.5t-154.5 89t-60.5 213.5q0 147 49 225t139 105q88 27 234 27h39v116h107v-116q162 0 252 -21.5t139 -97.5t49 -234h-135q0 96 -12.5 142t-55.5 65.5t-139 19.5h-98v-432q169 0 263.5 -19 t149.5 -93t55 -230q0 -112 -27 -182t-80 -106t-130 -49.5t-193 -14.5q-6 0 -18 -2t-20 -2v-137h-107v137q-178 0 -269.5 17t-146.5 92t-57 239zM158 934q0 -102 27.5 -153t82 -67t152.5 -16h59v436h-59q-98 0 -150 -10t-82 -53t-30 -137zM586 116q48 -14 84 -14q66 0 123 29 t91 82.5t34 124.5q0 109 -31.5 158.5t-89.5 63.5q-59 14 -181 16h-30v-460z" />
<glyph unicode="%" horiz-adv-x="1478" d="M4 884v64q0 114 14 177t65 98t157 35h96q132 0 173.5 -85t41.5 -231v-82q0 -136 -53.5 -186t-198.5 -50q-114 0 -175.5 18.5t-90.5 74.5q-29 55 -29 167zM78 1042q0 -16 3 -50t3 -48l4 -116q2 -66 23 -94t49 -32t118 -8q69 0 107.5 9t59 40t20.5 97v202q0 96 -31.5 121 t-115.5 25h-92q-84 0 -110 -29q-38 -39 -38 -117zM240 0l842 1256h92l-850 -1256h-84zM866 258v66q0 112 14 174t65 97.5t155 35.5q122 0 183 -13.5t93.5 -65.5t32.5 -165q0 -22 2 -75.5t2 -77.5q-1 -112 -35 -164q-32 -48 -86.5 -61t-138.5 -13q-112 0 -170.5 17t-87.5 73 t-29 172zM944 372q0 -8 2 -25t2 -25v-122q4 -82 36 -107q34 -25 102 -25q7 0 25.5 1t26.5 1q73 0 111 7t59 38t21 96v209q0 65 -16.5 96t-45.5 39t-85 8h-92q-89 0 -117.5 -49.5t-28.5 -141.5z" />
<glyph unicode="&#x26;" horiz-adv-x="1280" d="M14 398q0 82 12 141t48 102q26 28 55 41t79 26l60 15q-47 39 -70 67.5t-32.5 65t-9.5 98.5q0 122 45 185t123 82.5t204 19.5q132 0 209 -21.5t115.5 -87.5t38.5 -194v-68h-137q-2 14 -2 44q0 78 -11 119t-36 59t-66.5 22t-130.5 4q-107 0 -159 -24t-52 -117 q0 -72 22 -111q23 -40 83 -88l468 -393q4 26 4 84v84h138q0 -183 -10 -275l218 -180l-82 -98l-184 156q-27 -57 -70.5 -91.5t-97 -50.5t-110.5 -20t-129 -4q-154 0 -241.5 9t-154.5 46.5t-102 122t-35 230.5zM156 402q0 -128 18 -187t75 -83t181 -24h121q120 0 197.5 23 t97.5 109l-490 405q-98 -28 -131.5 -43.5t-51 -59.5t-17.5 -140z" />
<glyph unicode="'" horiz-adv-x="239" d="M14 903v65q32 0 60 24t28 54q0 16 -8 36h-59v174h149v-185q0 -87 -26 -129.5t-105 -42.5q-6 0 -18.5 2t-20.5 2z" />
<glyph unicode="(" horiz-adv-x="403" d="M4 488v308q0 124 9 203.5t40.5 140t100.5 93.5t184 33v-121q-75 0 -114 -20.5t-53.5 -57t-16.5 -99t-2 -114.5v-184l4 -508q1 -83 8.5 -131.5t40.5 -80.5t104 -32l29 4v-118q-8 0 -21.5 -2t-17.5 -2q-96 0 -154.5 31.5t-86.5 86t-36.5 120t-11.5 173.5q-6 93 -6 277z" />
<glyph unicode=")" horiz-adv-x="399" d="M4 -82q92 0 132 30t48 120q6 104 6 328l-6 509q0 83 -7 130t-41 78.5t-108 31.5h-24v117q8 0 20.5 2t18.5 2q98 0 155.5 -31t84.5 -86t35.5 -120.5t13.5 -174.5q6 -152 6 -458v-128q0 -116 -6 -189t-33.5 -137.5t-91 -103t-168.5 -38.5h-35v118z" />
<glyph unicode="*" horiz-adv-x="733" d="M18 991l31 89l258 -97v273h91v-273l258 97l32 -97l-258 -92l152 -217l-70 -58l-160 230l-166 -230l-74 58l160 217z" />
<glyph unicode="+" horiz-adv-x="927" d="M14 602v78h384v362h81v-362h387v-78h-387v-362h-81v362h-384z" />
<glyph unicode="," horiz-adv-x="223" d="M4 -108q30 0 57 25t27 55q0 10 -6 28h-62v172h150v-182q0 -92 -39 -131t-127 -39v72z" />
<glyph unicode="-" horiz-adv-x="497" d="M4 398v124h436v-124h-436z" />
<glyph unicode="." horiz-adv-x="205" d="M6 0v172h150v-172h-150z" />
<glyph unicode="/" horiz-adv-x="1143" d="M14 -184l965 1440h107l-970 -1440h-102z" />
<glyph unicode="0" horiz-adv-x="1124" d="M0 758q0 108 14 198t61 163.5t134 111.5q79 31 239 31h88q160 0 252 -13t153 -56t92 -133t36 -245v-438q-4 -120 -42.5 -201.5t-116.5 -127.5t-198 -52q-48 -2 -144 -2h-103q-101 0 -177 13t-135 48t-96 101t-47 168q-6 74 -6 229v92q0 17 -2 55t-2 58zM148 398 q4 -124 48 -197t160 -78q46 -1 131 -6t139 -5q109 0 173 22t96.5 88t32.5 194v424q0 128 -28 192t-95 87.5t-199 23.5h-137q-110 0 -173 -13.5t-102.5 -67.5t-41.5 -167q-4 -84 -4 -260v-237z" />
<glyph unicode="1" horiz-adv-x="614" d="M10 878l346 378h195v-1256h-131v1145l-322 -353z" />
<glyph unicode="2" horiz-adv-x="966" d="M4 0v236q0 114 30 182t85 101t125 45t196 24q140 15 179 21.5t75 30.5t53 75t17 151q0 127 -24.5 184.5t-85 75t-189.5 17.5q-133 -1 -201 -15q-59 -12 -86.5 -48t-34 -82t-6.5 -120v-52h-133q0 105 6.5 170.5t31 119t80.5 88.5q56 36 150 48q106 10 193 10 q167 0 259.5 -29t136.5 -114t44 -253q0 -109 -15 -181.5t-73 -123.5q-72 -61 -208.5 -76t-239 -23t-167.5 -57.5t-65 -183.5q1 -31 9 -105h757v-116h-899z" />
<glyph unicode="3" horiz-adv-x="987" d="M6 336v74h140v-74q0 -80 12.5 -126t53 -71t120.5 -27q32 0 99 -2t101 -2q116 0 170 19t74 71t20 164q0 98 -24 145t-76 61q-54 14 -154 14h-176v120q30 0 83 1t79 1q83 0 128.5 8t70.5 30.5t35 67.5t10 124q0 112 -32 158t-138 51q-70 2 -206 2q-150 1 -196 -49 q-42 -44 -42 -138q0 -14 2 -41t2 -47h-132q0 153 32 237.5t113 121.5t231 37h59q126 0 198 -7t131.5 -36.5t92.5 -95.5t33 -179q0 -168 -54 -233q-46 -57 -162 -70q94 -12 145 -41.5t72 -85.5t21 -152q0 -102 -15 -173t-65 -122t-147 -65q-106 -16 -246 -16 q-118 0 -197.5 10t-139.5 44t-93 104t-33 188z" />
<glyph unicode="4" horiz-adv-x="1085" d="M4 293v161l631 802h211v-846h186v-117h-186v-293h-134v293h-708zM123 410h589v754z" />
<glyph unicode="5" horiz-adv-x="987" d="M14 360h138q0 -106 21 -159t74 -73t159 -20h55q134 0 199.5 16.5t97.5 74t32 182.5q0 148 -13.5 214.5t-75 102t-201.5 35.5h-88q-95 0 -160 -20.5t-80 -92.5h-133v636h841v-126h-708v-376q49 66 129.5 84t198.5 18q156 0 250 -34t139 -120t45 -243q0 -152 -17 -240.5 t-64 -139.5t-135 -72t-239 -21q-130 0 -210 10.5t-137.5 47t-87.5 113.5t-30 203z" />
<glyph unicode="6" horiz-adv-x="987" d="M4 864q0 153 48 255t184 128q86 15 252 15q137 0 222 -15.5t142.5 -77t57.5 -190.5q0 -27 -5 -41h-133q0 88 -23 140q-23 50 -100 60q-57 6 -161 7h-48q-98 0 -165.5 -13.5t-94.5 -60.5q-24 -45 -24 -153v-258q40 70 123 91t196 21h43q162 0 251 -28t131 -110t42 -243 q0 -107 -17 -187.5t-71 -137t-160 -66.5q-70 -6 -215 -6q-136 0 -223 18t-142.5 65t-81.5 132.5t-26 220.5l4 226q0 30 -3 100t-3 108zM156 436q0 -106 9 -165.5t37.5 -95t87 -51.5t160.5 -16h64q115 0 173 15t86 65t28 158q0 111 -6.5 164.5t-33.5 84.5t-83.5 44t-165.5 13 h-47q-203 0 -265 -52q-30 -24 -37 -60t-7 -92v-12z" />
<glyph unicode="7" horiz-adv-x="966" d="M4 1134v122h914v-181l-609 -1075h-167l659 1134h-797z" />
<glyph unicode="8" horiz-adv-x="987" d="M6 366q0 98 17 152.5t63 85t135 48.5q-86 18 -129 50.5t-57.5 84t-14.5 143.5q0 144 40 216.5t121 96t235 23.5h112q146 0 230 -23t127 -94t43 -215q0 -94 -14.5 -146t-57.5 -84t-129 -52q90 -17 135.5 -49.5t60.5 -86.5q15 -56 15 -156q0 -102 -11 -167t-55 -114 t-134 -69q-88 -20 -269 -20q-190 0 -281.5 21.5t-136.5 101.5q-45 79 -45 253zM148 356q0 -94 12 -141t55 -72t133 -27q30 0 93 -2t95 -2q106 0 161 18t81 68q25 50 25 154q0 114 -33 168q-34 54 -144 66q-51 2 -161 2h-69q-87 0 -138.5 -13t-80.5 -56t-29 -132v-31z M162 903q0 -129 59 -163q57 -32 223 -32h88q92 0 144 13t79 55.5t27 128.5v49q0 125 -44 156q-42 35 -240 35h-72q-126 0 -195 -26.5t-69 -127.5v-49v-39z" />
<glyph unicode="9" horiz-adv-x="987" d="M4 282q0 8 1 20t1 20h131q0 -69 15.5 -114.5t55.5 -69.5t110 -26q64 -4 190 -4q119 0 177.5 17.5t84.5 71t26 165.5v238q-40 -72 -118 -94t-188 -22q-6 0 -20 2t-20 2q-124 0 -202 12t-130 49.5t-78 112t-26 198.5q0 128 23.5 208.5t74 124t130.5 60.5q78 17 206 17 q182 0 283 -29.5t152 -119.5t55 -271l4 -226v-239q0 -162 -41 -247.5t-133 -118.5t-260 -33h-82q-106 0 -174 7t-126 36t-90 90t-32 163zM152 878q0 -117 18.5 -171.5t74 -75.5t175.5 -21h45q148 0 219 16q51 12 75.5 39.5t30.5 63t6 92.5q0 108 -8 164.5t-36.5 92.5 t-86 51.5t-161.5 15.5h-45q-134 0 -194.5 -15.5t-86.5 -71t-26 -180.5z" />
<glyph unicode=":" horiz-adv-x="205" d="M6 0v172h150v-172h-150zM6 708v170h150v-170h-150z" />
<glyph unicode=";" horiz-adv-x="239" d="M18 -108q30 0 59 27t29 57q0 12 -8 24h-63v172h149v-182q0 -90 -40 -130t-126 -40v72zM28 708v170h148v-170h-148z" />
<glyph unicode="&#x3c;" horiz-adv-x="868" d="M10 568v126l811 386v-150l-655 -299l655 -303v-144z" />
<glyph unicode="=" horiz-adv-x="927" d="M14 473v78h852v-78h-852zM14 738v77h852v-77h-852z" />
<glyph unicode="&#x3e;" horiz-adv-x="889" d="M10 184v144l660 303l-660 303v146l816 -386v-126z" />
<glyph unicode="?" horiz-adv-x="850" d="M10 860q0 165 29 249.5t108 120.5t240 36q112 0 183.5 -11.5t121 -45t75 -101.5t25.5 -180q0 -150 -33 -223t-71.5 -93t-124 -48t-123.5 -66q-28 -24 -28 -102v-34h-138q0 98 14 149t54 83q40 34 127 66q88 34 125.5 58t53.5 66q16 44 16 126q0 112 -24 161t-76 61.5 t-173 12.5q-161 0 -205 -41q-44 -45 -44 -160v-84h-132zM264 0v172h148v-172h-148z" />
<glyph unicode="@" horiz-adv-x="1108" d="M20 547v25q0 232 38 346q34 118 151 155t289 37h65q215 0 311 -28q78 -26 118 -92.5t49 -144t9 -179.5v-78q0 -142 -31 -238t-135 -96q-57 0 -100 26q-44 24 -51 76q-46 -110 -225 -110q-80 0 -130 24t-74 67t-32 101t-8 138q0 163 50 238t204 75q148 0 197 -86v81h88 v-425q1 -16 3.5 -45t8.5 -47.5t21.5 -30.5t41.5 -12q38 0 55 19t25 59q14 119 15 243q0 173 -17 246t-86.5 106t-234.5 33h-121q-146 0 -250 -18q-166 -28 -166 -332q0 -18 2 -51t2 -47q0 -288 46 -373q66 -115 313 -115q10 0 29.5 2t31.5 2h88q14 0 42 -2t46 -2 q136 0 172 68l64 -46q-54 -98 -264 -98q-4 0 -17 1t-18 1q-202 0 -307.5 13t-174.5 62t-101 156t-32 296zM362 561q0 -147 40 -201q28 -32 112 -32q86 0 128 20.5t55 64t15 129.5v82q0 104 -36 147.5t-138 43.5q-58 0 -95 -9.5t-56 -47.5q-25 -52 -25 -156v-41z" />
<glyph unicode="A" horiz-adv-x="1186" d="M14 0l459 1256h201l464 -1256h-147l-100 268h-631l-94 -268h-152zM299 381h555l-278 772z" />
<glyph unicode="B" horiz-adv-x="1030" d="M18 0v1256h602q114 0 184 -29t104 -97t34 -186q0 -122 -31 -186t-133 -98q120 -34 160.5 -101t40.5 -197q0 -118 -29.5 -197.5t-101.5 -122.5q-70 -42 -192 -42h-638zM158 123h384q121 0 178.5 13.5t84.5 62.5t27 157q0 112 -35 169t-145 57h-494v-459zM158 708h395 q96 0 148 19t73.5 68t21.5 139q0 114 -40 155t-154 41h-444v-422z" />
<glyph unicode="C" horiz-adv-x="1065" d="M6 626v200q0 126 27 213t98 141t197 67q78 11 244 11q132 0 208 -15t120 -56t65 -117t29 -210h-140q0 108 -14 163.5t-62 83t-147 27.5q-119 0 -265 -10q-90 -8 -135.5 -41t-60 -92t-14.5 -159v-290q0 -256 49 -346q43 -80 249 -80q15 0 54.5 -2t63.5 -2q128 0 211 36 q83 34 87 136q0 24 -2 72t-2 70h140q0 -20 3 -59t3 -58q0 -283 -279 -309q-101 -6 -201 -6h-176q-134 10 -207 66t-102 144t-34 211t-7 211z" />
<glyph unicode="D" horiz-adv-x="1108" d="M20 0v1256h580q138 0 228 -34t139.5 -100.5t69.5 -164t20 -238.5v-119q0 -190 -27 -316t-119.5 -205t-275.5 -79h-615zM158 123h410q100 0 168 13.5t110 63.5q72 94 72 351v59q0 200 -15 295q-16 135 -90.5 179t-216.5 44h-438v-1005z" />
<glyph unicode="E" horiz-adv-x="868" d="M10 0v1256h805v-128h-667v-424h638v-118h-638v-463h667v-123h-805z" />
<glyph unicode="F" horiz-adv-x="833" d="M14 0v1256h768v-128h-624v-434h606v-118h-606v-576h-144z" />
<glyph unicode="G" horiz-adv-x="1108" d="M18 459q0 58 1 172.5t1 171.5q0 167 40 267t135 146t259 46q201 0 304 -4q154 -4 223 -85t69 -239v-45h-136q0 128 -35 184.5t-152 60.5q-88 4 -262 4q-136 0 -196.5 -24.5t-80.5 -92t-22 -225.5l-4 -165l4 -177q0 -96 10 -158t49.5 -109t122.5 -60q68 -11 203 -11h73 q125 0 185 20t82.5 77t22.5 178v109h-400v124h536q4 -46 4 -136v-90q0 -175 -50 -278t-208 -120q-140 -10 -258 -10q-210 0 -318.5 37.5t-155 137t-46.5 294.5z" />
<glyph unicode="H" horiz-adv-x="1085" d="M6 0v1256h140v-554h732v554h144v-1256h-144v582h-732v-582h-140z" />
<glyph unicode="I" horiz-adv-x="205" d="M14 0v1256h142v-1256h-142z" />
<glyph unicode="J" horiz-adv-x="833" d="M6 309q0 100 4 150h138v-107q0 -96 14 -144t58 -70t136 -22q116 0 175 17.5t84.5 70t25.5 162.5v886h141v-906q0 -128 -34.5 -205t-113 -112t-210.5 -35q-147 0 -233.5 19t-135.5 87t-49 209z" />
<glyph unicode="K" horiz-adv-x="1108" d="M20 0v1256h146v-548h123l512 548h186l-575 -607l642 -649h-194l-571 582h-123v-582h-146z" />
<glyph unicode="L" horiz-adv-x="850" d="M14 0v1256h152v-1125h635v-131h-787z" />
<glyph unicode="M" horiz-adv-x="1439" d="M14 0v1256h244l440 -1072l445 1072h245v-1256h-143v1153l-473 -1153h-141l-479 1143v-1143h-138z" />
<glyph unicode="N" horiz-adv-x="1143" d="M18 0v1256h228l706 -1148v1148h138v-1256h-230l-704 1134v-1134h-138z" />
<glyph unicode="O" horiz-adv-x="1048" d="M10 606v74q0 158 9 255t47 173t122.5 119t231.5 43h59q145 0 235.5 -13t153 -54.5t94.5 -127t32 -229.5q0 -294 -3 -448q-3 -118 -25 -195t-70.5 -125t-129 -70t-198.5 -22q-18 0 -52 2t-57 2q-114 0 -192 14.5t-132 53t-85 112.5q-30 72 -36 190q-4 84 -4 246zM156 412 q3 -126 26 -189.5t85 -88.5q61 -26 187 -26q122 0 190 8t113 38t67.5 94.5t25.5 177.5q4 138 4 414q0 150 -34 214t-104 79.5t-226 15.5h-50q-117 0 -174 -21t-82 -85q-24 -63 -26 -201l-2 -230v-200z" />
<glyph unicode="P" horiz-adv-x="987" d="M6 0v1256h586q82 0 143 -12t105 -52q62 -56 82 -138q20 -84 20 -190q0 -92 -16 -164t-66 -118q-34 -35 -75 -53.5t-85 -25.5t-117.5 -8t-74.5 -1h-362v-494h-140zM146 612h333q128 0 191.5 15t94.5 69t31 170q0 98 -13.5 154t-58.5 83t-136 27h-442v-518z" />
<glyph unicode="Q" horiz-adv-x="1220" d="M18 641q0 207 17 319t69 178.5t161 95t303 28.5h32q180 0 274 -31q112 -39 159 -150t47 -249v-201l2 -177q0 -150 -28 -228l105 -70l-55 -98l-96 65q-68 -84 -167.5 -106.5t-252.5 -22.5q-154 0 -245 9t-162 47t-112 121t-49 231q-2 78 -2 239zM158 639l4 -199 q0 -117 19 -182.5t61 -96.5t108 -40t188 -9q18 0 58 -2t60 -2q174 0 235 86l-387 254l64 99l362 -240q12 136 12 285q0 116 -8 322q-12 100 -46.5 149t-88 62t-143.5 13h-142q-110 0 -170 -7t-102.5 -36t-63 -92t-20.5 -175v-189z" />
<glyph unicode="R" horiz-adv-x="1030" d="M18 0v1256h592q198 0 283.5 -83t85.5 -282q0 -105 -11 -164t-57.5 -103t-148.5 -63q200 -13 200 -239v-322h-145v289q0 121 -55.5 170t-179.5 49h-426v-508h-138zM156 624h407q99 0 156.5 19t85 69.5t27.5 143.5q0 106 -14 161.5t-61 84t-147 28.5h-454v-506z" />
<glyph unicode="S" horiz-adv-x="1009" d="M4 332q0 10 1 29t1 30h136q0 -119 19.5 -175t75.5 -78q57 -22 175 -22h116q114 0 171 15t82.5 65t25.5 156q0 88 -14.5 132t-56.5 62t-126 22q-118 5 -231.5 10.5t-193.5 33.5t-127 102q-48 74 -48 210q0 144 51 217t143 97q90 24 236 24h33q116 0 192.5 -9t135 -40.5 t91 -100t32.5 -182.5v-20h-138q-6 97 -25.5 145.5t-68 68t-145.5 19.5h-72q-194 0 -256 -39q-67 -42 -67 -174q0 -74 14 -118.5t55 -69t117 -30.5q13 -1 184.5 -6.5t250.5 -29.5t127 -96t48 -214q0 -110 -18 -183t-73 -121t-163 -58q-102 -10 -240 -10q-114 0 -190 10 t-135.5 44t-92 103t-32.5 181z" />
<glyph unicode="T" horiz-adv-x="1009" d="M4 1120v136h950v-136h-401v-1120h-143v1120h-406z" />
<glyph unicode="U" horiz-adv-x="1065" d="M18 377v879h144v-879q0 -109 23.5 -164t81 -76t167.5 -21h138q86 0 142 10t90.5 37t50 79t15.5 135v879h142v-879q0 -134 -32 -214t-110 -120.5t-218 -46.5q-46 -2 -140 -2q-179 0 -279.5 22.5t-157.5 105t-57 255.5z" />
<glyph unicode="V" horiz-adv-x="1163" d="M14 1256h152l397 -1144l391 1144h152l-442 -1256h-203z" />
<glyph unicode="W" horiz-adv-x="1925" d="M10 1256h146l344 -1148l340 1148h206l336 -1148l352 1148h144l-393 -1256h-213l-330 1128l-336 -1128h-210z" />
<glyph unicode="X" horiz-adv-x="1186" d="M18 0l447 649l-412 607h173l352 -537l352 537h166l-398 -607l430 -649h-166l-384 576l-388 -576h-172z" />
<glyph unicode="Y" horiz-adv-x="1124" d="M6 1256h164l368 -586l376 586h166l-474 -732v-524h-141v524z" />
<glyph unicode="Z" horiz-adv-x="1030" d="M4 0v127l782 993h-762v136h938v-136l-790 -993h807v-127h-975z" />
<glyph unicode="[" horiz-adv-x="381" d="M4 -186v1442h320v-111h-178v-1223h178v-108h-320z" />
<glyph unicode="\" horiz-adv-x="1124" d="M4 1256h104l967 -1440h-102z" />
<glyph unicode="]" horiz-adv-x="403" d="M20 -78h180v1223h-180v111h322v-1442h-322v108z" />
<glyph unicode="^" horiz-adv-x="889" d="M6 704l326 552h168l326 -552h-138l-272 453l-270 -453h-140z" />
<glyph unicode="_" horiz-adv-x="1009" d="M4 -133h940v-97h-940v97z" />
<glyph unicode="`" horiz-adv-x="223" d="M10 924v182q0 88 26 131t101 43q8 0 20.5 -2t18.5 -2v-70q-50 -3 -66 -30q-16 -26 -16 -82h64v-170h-148z" />
<glyph unicode="a" horiz-adv-x="833" d="M18 264q0 110 42 168t115 77t185 19q104 0 172 -15t109 -73v102q0 110 -19 161t-70 67t-165 16q-124 0 -168 -34q-39 -26 -39 -96q0 -6 2 -15.5t2 -16.5h-135q0 164 83.5 210t263.5 46q135 0 215 -21t122.5 -88t42.5 -199v-572h-124l8 92q-50 -65 -121 -85.5t-177 -20.5 q-118 0 -191 21t-113 81t-40 176zM156 278q0 -110 44 -148t156 -38q86 0 146 8.5t103.5 44.5t43.5 113q0 108 -60.5 138t-182.5 30h-34q-144 0 -186 -39q-30 -25 -30 -109z" />
<glyph unicode="b" horiz-adv-x="833" d="M14 0v1256h132v-488q60 123 266 123q151 0 229 -48.5t104.5 -140.5t26.5 -248q0 -118 -10.5 -196t-45 -138t-107.5 -93t-193 -33q-198 0 -279 118l9 -112h-132zM148 416q0 -93 7 -146.5t32.5 -91.5t77.5 -57q53 -19 141 -19q112 0 160 37t60 143q8 56 9 172 q0 130 -11.5 194t-65 101t-171.5 37q-107 0 -159 -36t-66 -101t-14 -184v-49z" />
<glyph unicode="c" horiz-adv-x="833" d="M18 469q0 155 33 245t117 132.5t238 42.5q169 0 260.5 -54.5t91.5 -214.5v-28h-127q0 80 -20.5 120t-65.5 55t-125 15q-120 0 -174 -23t-72 -83t-18 -192v-88q0 -116 13 -175.5t65 -90.5q52 -32 162 -32q106 0 155.5 14t71.5 61.5t22 148.5h131q0 -135 -37 -205.5 t-115 -96.5t-218 -26q-137 0 -215.5 27t-115.5 84t-47 137.5t-10 226.5z" />
<glyph unicode="d" horiz-adv-x="833" d="M20 450q0 144 25 237.5t97 147.5t210 54q110 0 187 -23t110 -98v484h129v-1252h-129l7 112q-30 -49 -74 -75.5t-94 -36.5q-52 -10 -118 -10q-115 0 -185.5 32t-105.5 91t-47 139t-12 198zM158 454q0 -152 18 -224q20 -78 74 -107q56 -29 146 -29q116 0 170.5 37t68.5 103 t14 190q0 102 -5.5 159t-28.5 103t-76 71t-148 25q-111 0 -161 -37t-61 -100.5t-11 -190.5z" />
<glyph unicode="e" horiz-adv-x="833" d="M18 420q0 174 23 270t103.5 148.5t246.5 52.5t248.5 -34.5t113.5 -118.5t33 -254v-68h-630q0 -122 11 -184.5t62 -100t162 -37.5h35q110 0 166.5 26t56.5 120v28h137q0 -124 -44.5 -184t-121.5 -77q-76 -17 -208 -17q-124 0 -201 22t-118.5 71t-58 129.5t-16.5 207.5z M156 518h496q0 118 -15.5 173t-68 77t-166.5 22q-101 0 -153.5 -24t-72.5 -81.5t-20 -166.5z" />
<glyph unicode="f" horiz-adv-x="557" d="M10 772v106h132v130q0 148 67 205t215 57q18 0 43.5 -2t40.5 -2v-109q-10 0 -35 1t-37 1q-162 0 -162 -141v-140h234v-106h-234v-772h-132v772h-132z" />
<glyph unicode="g" horiz-adv-x="833" d="M14 402q0 122 10 205t45 147t107 100q72 35 194 35q98 0 167 -26.5t115 -98.5l-7 114h127v-936q0 -132 -41.5 -203.5t-124 -98.5t-219.5 -27q-122 0 -194.5 19.5t-110 81.5t-37.5 184h125q3 -78 22.5 -116.5t60.5 -51t119 -12.5q100 0 156 13.5t86.5 60t30.5 140.5v176 q-38 -74 -110.5 -96t-178.5 -22q-135 0 -210.5 49t-103.5 138t-28 225zM152 410q0 -120 12 -181t64 -96q54 -35 168 -35q108 0 168.5 43t70.5 148q6 73 6 151q0 128 -12.5 194t-64.5 105t-168 39q-102 0 -153 -22.5t-71 -78.5t-20 -165v-102z" />
<glyph unicode="h" horiz-adv-x="790" d="M4 0v1256h129v-478q42 72 108.5 94.5t170.5 22.5q126 0 197 -29.5t103 -98.5t32 -195v-572h-134v572q0 16 2 24q0 80 -20.5 122t-65 57t-124.5 15q-110 0 -168 -28t-79.5 -89t-21.5 -169v-504h-129z" />
<glyph unicode="i" horiz-adv-x="205" d="M14 0v878h134v-878h-134zM14 1110v146h134v-146h-134z" />
<glyph unicode="j" horiz-adv-x="317" d="M14 -236q6 0 14 -4q70 0 89.5 40t19.5 122v956h127v-956q0 -123 -39 -191.5t-151 -68.5q-36 0 -60 6v96zM133 1110v146h135v-146h-135z" />
<glyph unicode="k" horiz-adv-x="790" d="M10 0v1256h132v-732h52l318 354h162l-375 -403l441 -475h-172l-374 424h-52v-424h-132z" />
<glyph unicode="l" horiz-adv-x="205" d="M14 0v1256h134v-1256h-134z" />
<glyph unicode="m" horiz-adv-x="1382" d="M18 0v878h128v-130q72 143 281 143h3h3q233 0 279 -143q85 147 293 147h3q116 0 185 -31.5t100.5 -99.5t31.5 -182v-582h-133v592q0 112 -42 153t-156 41q-76 0 -143 -23t-93 -79q-20 -50 -20 -146v-538h-136v582q-3 84 -18.5 125t-56.5 58t-129 17q-139 0 -195.5 -68 t-56.5 -210v-504h-128z" />
<glyph unicode="n" horiz-adv-x="811" d="M14 0v878h119v-114q50 77 124.5 106t176.5 29q120 0 189 -29.5t100 -99.5q31 -68 31 -188v-582h-134v572q0 89 -16 134.5t-62 64.5q-44 19 -136 19q-260 0 -260 -252v-538h-132z" />
<glyph unicode="o" horiz-adv-x="850" d="M14 381v84q0 160 28 250.5t108 135t237 44.5q169 0 255 -36.5t117 -125.5t31 -260q0 -179 -18 -275t-97 -154t-249 -58q-164 0 -250.5 31t-124 115.5t-37.5 248.5zM148 391q0 -202 52 -260q38 -37 142 -37h64q84 0 133 13.5t77 54t33 120.5q3 70 3 202q0 128 -11 186.5 t-57 87t-150 28.5h-28q-118 0 -171 -22t-70 -81t-17 -189v-29v-74z" />
<glyph unicode="p" horiz-adv-x="833" d="M18 -377v1255h128l-4 -114q48 72 114.5 98.5t163.5 26.5q152 0 228.5 -50.5t99.5 -144.5q24 -94 24 -250q0 -118 -10.5 -195t-44 -136t-102 -91t-181.5 -32q-99 0 -171 24q-71 24 -117 92v-483h-128zM148 402q0 -105 16 -168.5t69.5 -99.5t157.5 -36q114 0 165.5 35 t65.5 97q13 62 13 180v51q0 126 -12 188.5t-63.5 97.5t-163.5 35t-165 -31.5t-68 -95t-15 -186.5v-67z" />
<glyph unicode="q" horiz-adv-x="833" d="M20 436q0 112 12.5 191t48 136.5t105.5 89t180 31.5q104 0 174 -23t116 -93l-4 110h130v-1250h-130v474q-59 -116 -275 -116q-152 0 -229.5 53t-102.5 148t-25 249zM158 391q0 -110 17 -172.5t71 -93.5t164 -31q106 0 158 39t66.5 105t14.5 178v18q0 140 -13 208 t-68.5 104t-180.5 36q-103 0 -153 -39t-63 -105.5t-13 -178.5v-68z" />
<glyph unicode="r" horiz-adv-x="669" d="M6 0v878h127l-2 -100q75 121 239 121q254 0 254 -311h-126q0 102 -31 152t-125 50q-205 0 -205 -204v-586h-131z" />
<glyph unicode="s" horiz-adv-x="833" d="M18 230q0 34 2 48h132q0 -78 19.5 -118t63 -54t125.5 -14h31q156 0 205 35q39 28 39 127q0 86 -40.5 109.5t-125.5 23.5h-53q-3 0 -12.5 2t-12.5 2q-130 8 -171.5 12.5t-90.5 26t-77 70t-28 131.5q0 157 64 201q87 63 278 63h6q108 0 187.5 -16.5t132 -70.5t52.5 -156 h-132q0 84 -53 111t-147 27h-66q-93 0 -140.5 -27t-47.5 -107q0 -54 10 -83t38 -42t83 -17q90 -2 177 -4t153 -21t107.5 -73t41.5 -156q0 -121 -44 -179.5t-121 -74.5t-205 -16q-117 0 -195.5 14t-131.5 66t-53 160z" />
<glyph unicode="t" horiz-adv-x="692" d="M6 772v106h115v212h133v-212h338v-106h-338v-536q0 -80 24 -109t99 -29q82 0 104.5 37t22.5 119v55h122q0 -160 -48 -239.5t-201 -79.5q-98 0 -153 22.5t-79 75.5q-24 54 -24 148v536h-115z" />
<glyph unicode="u" horiz-adv-x="790" d="M10 297v581h136v-581q0 -80 16 -122t57.5 -59.5t122.5 -17.5q104 0 160 25t78 81t22 158v516h136v-878h-122v116q-55 -78 -122.5 -102t-179.5 -24q-156 0 -230 74t-74 233z" />
<glyph unicode="v" horiz-adv-x="833" d="M14 878h132l252 -776l241 776h143l-294 -878h-185z" />
<glyph unicode="w" horiz-adv-x="1319" d="M20 878h136l200 -786l195 786h189l190 -786l200 786h140l-248 -878h-190l-191 786l-187 -786h-194z" />
<glyph unicode="x" horiz-adv-x="833" d="M10 0l318 459l-283 419h149l202 -321l200 321h152l-279 -419l313 -459h-158l-228 356l-226 -356h-160z" />
<glyph unicode="y" horiz-adv-x="811" d="M6 878h136l274 -780l196 780h136l-248 -927q-28 -130 -104 -238.5t-185 -108.5q-25 0 -69 11v107q5 0 17.5 -2t16.5 -2q62 0 99 43t54 94t41 145h-46z" />
<glyph unicode="z" horiz-adv-x="755" d="M20 0v123l522 653h-478v102h634v-120l-526 -650h526v-108h-678z" />
<glyph unicode="{" horiz-adv-x="497" d="M10 412v110q111 32 111 172v328q0 102 33.5 158.5t95.5 78t162 21.5q18 0 28 -4v-127q-102 -3 -141 -39.5t-39 -136.5v-299q0 -80 -20 -128t-82 -81q60 -34 81 -87.5t21 -131.5v-291q0 -72 16.5 -110.5t53.5 -54.5q38 -18 110 -20v-118q-122 0 -187.5 18t-98.5 78 t-33 182v300q0 76 -23 120t-88 62z" />
<glyph unicode="|" horiz-adv-x="223" d="M20 -314v1566h150v-1566h-150z" />
<glyph unicode="}" horiz-adv-x="497" d="M6 -219q98 3 139 39.5t41 134.5v299q0 82 19.5 130.5t83.5 80.5q-62 34 -82.5 85.5t-20.5 133.5v289q0 71 -17 110t-55 55t-108 19v123q124 0 189 -17t99 -77t34 -188v-300q0 -74 22.5 -117t85.5 -63v-108q-108 -30 -108 -174v-330q0 -143 -86 -198.5t-236 -55.5v129z " />
<glyph unicode="~" horiz-adv-x="966" d="M4 553q97 211 256 211q49 0 94.5 -18t106.5 -51.5t104 -51t91 -17.5q92 0 170 142l77 -64q-42 -88 -108.5 -147t-149.5 -59q-48 0 -90.5 15t-100.5 46t-100 49t-86 23q-112 1 -184 -137z" />
<glyph unicode="&#xa1;" />
<glyph unicode="&#xa2;" horiz-adv-x="205" d="M14 0v878h134v-878h-134zM14 1110v146h134v-146h-134z" />
<glyph unicode="&#xa3;" />
<glyph unicode="&#xa4;" />
<glyph unicode="&#xa5;" />
<glyph unicode="&#xa6;" horiz-adv-x="223" d="M20 -314v1566h150v-1566h-150z" />
<glyph unicode="&#xa7;" />
<glyph unicode="&#xa8;" />
<glyph unicode="&#xa9;" />
<glyph unicode="&#xaa;" />
<glyph unicode="&#xab;" />
<glyph unicode="&#xac;" horiz-adv-x="1143" d="M18 0v1256h228l706 -1148v1148h138v-1256h-230l-704 1134v-1134h-138z" />
<glyph unicode="&#xad;" horiz-adv-x="497" d="M4 398v124h436v-124h-436z" />
<glyph unicode="&#xae;" />
<glyph unicode="&#xaf;" />
<glyph unicode="&#xb0;" />
<glyph unicode="&#xb1;" />
<glyph unicode="&#xb2;" />
<glyph unicode="&#xb3;" />
<glyph unicode="&#xb4;" />
<glyph unicode="&#xb5;" />
<glyph unicode="&#xb6;" />
<glyph unicode="&#xb7;" />
<glyph unicode="&#xb8;" />
<glyph unicode="&#xb9;" />
<glyph unicode="&#xba;" />
<glyph unicode="&#xbb;" />
<glyph unicode="&#xbc;" horiz-adv-x="927" d="M14 602v78h384v362h81v-362h387v-78h-387v-362h-81v362h-384z" />
<glyph unicode="&#xbd;" />
<glyph unicode="&#xbe;" />
<glyph unicode="&#xbf;" />
<glyph unicode="&#xc0;" horiz-adv-x="1186" d="M14 0l459 1256h201l464 -1256h-147l-100 268h-631l-94 -268h-152zM299 381h555l-278 772z" />
<glyph unicode="&#xc1;" horiz-adv-x="1030" d="M18 0v1256h871v-126h-731v-422h508q149 0 231 -89t82 -238v-19q0 -118 -29.5 -197.5t-101.5 -122.5q-70 -42 -192 -42h-638zM158 123h384q121 0 178.5 13.5t84.5 62.5t27 157q0 112 -35 169t-145 57h-494v-459z" />
<glyph unicode="&#xc2;" horiz-adv-x="1030" d="M18 0v1256h602q114 0 184 -29t104 -97t34 -186q0 -122 -31 -186t-133 -98q120 -34 160.5 -101t40.5 -197q0 -118 -29.5 -197.5t-101.5 -122.5q-70 -42 -192 -42h-638zM158 123h384q121 0 178.5 13.5t84.5 62.5t27 157q0 112 -35 169t-145 57h-494v-459zM158 708h395 q96 0 148 19t73.5 68t21.5 139q0 114 -40 155t-154 41h-444v-422z" />
<glyph unicode="&#xc3;" horiz-adv-x="833" d="M14 0v1256h768v-128h-624v-1128h-144z" />
<glyph unicode="&#xc4;" horiz-adv-x="1263" d="M10 -102v233h92l402 1121h200l392 -1121h120v-237h-141v110l-919 -4v-102h-146zM250 131h708l-352 1007z" />
<glyph unicode="&#xc5;" horiz-adv-x="868" d="M10 0v1256h805v-128h-667v-424h638v-118h-638v-463h667v-123h-805z" />
<glyph unicode="&#xc6;" horiz-adv-x="1847" d="M10 0l596 649l-532 607h172l477 -548h109v548h145v-548h109l474 548h174l-532 -607l596 -649h-176l-536 582h-109v-582h-145v582h-109l-533 -582h-180z" />
<glyph unicode="&#xc7;" horiz-adv-x="1009" d="M4 332q0 10 1 29t1 30h136q0 -119 19.5 -175t75.5 -78q57 -22 175 -22h116q114 0 171 15t82.5 65t25.5 156q0 86 -16.5 131.5t-58.5 64.5q-42 20 -126 24h-366v132h370q76 5 118 33t57.5 75.5t15.5 121.5q0 130 -68 172q-60 39 -258 39h-65q-99 0 -148.5 -19t-69.5 -67.5 t-26 -144.5h-138v20q0 150 55 222t147 91t249 19h33q150 0 240 -24t140 -97.5t50 -216.5q0 -170 -139 -276q145 -76 145 -286q0 -110 -18 -183t-73 -121t-163 -58q-102 -10 -240 -10q-114 0 -190 10t-135.5 44t-92 103t-32.5 181z" />
<glyph unicode="&#xc8;" horiz-adv-x="1143" d="M18 0v1256h138v-1148l700 1148h230v-1256h-138v1134l-702 -1134h-228z" />
<glyph unicode="&#xc9;" horiz-adv-x="1143" d="M18 0v1256h138v-1148l700 1148h230v-1256h-138v1134l-702 -1134h-228zM299 1290v119h493v-119h-493z" />
<glyph unicode="&#xca;" horiz-adv-x="1108" d="M20 0v1256h146v-548h123l512 548h186l-575 -607l642 -649h-194l-571 582h-123v-582h-146z" />
<glyph unicode="&#xcb;" horiz-adv-x="1163" d="M18 0l447 1256h201l444 -1256h-152l-390 1143l-398 -1143h-152z" />
<glyph unicode="&#xcc;" horiz-adv-x="1439" d="M14 0v1256h244l440 -1072l445 1072h245v-1256h-143v1153l-473 -1153h-141l-479 1143v-1143h-138z" />
<glyph unicode="&#xcd;" horiz-adv-x="1085" d="M6 0v1256h140v-554h732v554h144v-1256h-144v582h-732v-582h-140z" />
<glyph unicode="&#xce;" horiz-adv-x="1048" d="M10 606v74q0 158 9 255t47 173t122.5 119t231.5 43h59q145 0 235.5 -13t153 -54.5t94.5 -127t32 -229.5q0 -294 -3 -448q-3 -118 -25 -195t-70.5 -125t-129 -70t-198.5 -22q-18 0 -52 2t-57 2q-114 0 -192 14.5t-132 53t-85 112.5q-30 72 -36 190q-4 84 -4 246zM156 412 q3 -126 26 -189.5t85 -88.5q61 -26 187 -26q122 0 190 8t113 38t67.5 94.5t25.5 177.5q4 138 4 414q0 150 -34 214t-104 79.5t-226 15.5h-50q-117 0 -174 -21t-82 -85q-24 -63 -26 -201l-2 -230v-200z" />
<glyph unicode="&#xcf;" horiz-adv-x="1085" d="M6 0v1256h1016v-1256h-144v582l2 548h-734v-1130h-140z" />
<glyph unicode="&#xd0;" horiz-adv-x="987" d="M6 0v1256h586q82 0 143 -12t105 -52q62 -56 82 -138q20 -84 20 -190q0 -92 -16 -164t-66 -118q-34 -35 -75 -53.5t-85 -25.5t-117.5 -8t-74.5 -1h-362v-494h-140zM146 612h333q128 0 191.5 15t94.5 69t31 170q0 98 -13.5 154t-58.5 83t-136 27h-442v-518z" />
<glyph unicode="&#xd1;" horiz-adv-x="1065" d="M6 626v200q0 126 27 213t98 141t197 67q78 11 244 11q132 0 208 -15t120 -56t65 -117t29 -210h-140q0 108 -14 163.5t-62 83t-147 27.5q-119 0 -265 -10q-90 -8 -135.5 -41t-60 -92t-14.5 -159v-290q0 -256 49 -346q43 -80 249 -80q15 0 54.5 -2t63.5 -2q128 0 211 36 q83 34 87 136q0 24 -2 72t-2 70h140q0 -20 3 -59t3 -58q0 -283 -279 -309q-101 -6 -201 -6h-176q-134 10 -207 66t-102 144t-34 211t-7 211z" />
<glyph unicode="&#xd2;" horiz-adv-x="1009" d="M4 1120v136h950v-136h-401v-1120h-143v1120h-406z" />
<glyph unicode="&#xd3;" horiz-adv-x="1124" d="M6 1256l188 2l374 -842l346 840h166l-332 -795l-195 -461h-151l92 226z" />
<glyph unicode="&#xd4;" horiz-adv-x="1554" d="M0 624q0 24 2 68t2 56q0 108 51.5 192.5t140 131t195.5 46.5h297v127h127v-127h289q106 0 197 -47t143 -131q53 -84 53 -192v-124q0 -214 -45 -278q-74 -76 -130 -108t-144 -38h-361v-206h-137v206h-356q-64 4 -106.5 20t-79.5 45t-89 81q-49 70 -49 278zM137 694 q0 -10 3 -32q2 -22 2 -38q0 -118 22 -178t69 -83t133 -31h314v662h-362q-54 -6 -132 -84q-27 -24 -38 -71t-11 -145zM817 332h317q86 8 133.5 31t70 83t22.5 178v28q0 324 -178 342h-365v-662z" />
<glyph unicode="&#xd5;" horiz-adv-x="1186" d="M18 0l447 649l-412 607h173l352 -537l352 537h166l-398 -607l430 -649h-166l-384 576l-388 -576h-172z" />
<glyph unicode="&#xd6;" horiz-adv-x="1186" d="M20 0v1256h138v-1129h733v1129h141v-1140h88v-222h-137v106h-963z" />
<glyph unicode="&#xd7;" horiz-adv-x="1085" d="M10 610v646h146v-632q0 -47 29 -71.5t133 -24.5q2 0 6 1l14 3h546v724h148v-1256h-148v381h-640q-108 0 -171 63.5t-63 165.5z" />
<glyph unicode="&#xd8;" horiz-adv-x="1734" d="M10 -4v1256h127v-1131h653v1131h130v-1131h640v1131h122v-1256l-426 4h-734z" />
<glyph unicode="&#xd9;" horiz-adv-x="1847" d="M18 -4v1256h128v-1131h650v1131h132v-1131h641v1131h119v-1136h100v-218h-136v102h-1124z" />
<glyph unicode="&#xda;" horiz-adv-x="1124" d="M10 1118v134h258v-490h363q57 -2 104 -4t92 -9t85 -24t75 -51q82 -86 82 -287q0 -106 -23 -189q-22 -82 -84 -138q-42 -40 -102.5 -52t-144.5 -12h-584v1122h-121zM268 123h381q10 0 31 -1q20 -1 32 -1q90 0 135 28t59 83.5t14 152.5q0 116 -32 170.5t-95 69t-191 14.5 h-334v-516z" />
<glyph unicode="&#xdb;" horiz-adv-x="1263" d="M6 -4v1251h140v-489h362q1 0 76.5 -2t117.5 -8t83 -24t75 -54q50 -49 66 -120.5t16 -162.5q0 -233 -102 -329q-44 -40 -102.5 -51t-145.5 -11h-586zM146 121h378q12 0 33 -2.5t31 -2.5q91 0 136 29t58.5 85t13.5 155q0 114 -31.5 168.5t-95.5 70t-190 15.5h-333v-518z M1065 -4v1256h141v-1256h-141z" />
<glyph unicode="&#xdc;" horiz-adv-x="1009" d="M10 -4v1256h138v-490h364q57 -2 104.5 -4t91.5 -9t84 -24t74 -51q82 -84 82 -287q0 -105 -22 -189q-22 -82 -84 -138q-42 -40 -103 -52t-143 -12h-586zM148 123h380q12 0 33 -1t31 -1q90 0 135 28.5t59.5 83.5t14.5 152q0 116 -32.5 170.5t-95.5 69t-189 14.5h-336v-516z " />
<glyph unicode="&#xdd;" horiz-adv-x="1065" d="M18 309q0 20 1 58.5t1 58.5h138v-142q2 -70 42 -108t101 -51t139 -13q25 0 70.5 2t61.5 2q208 0 249 80q49 94 49 346v44h-649v133h649l4 92v21q0 99 -15.5 158.5t-62.5 93.5q-46 32 -136 40q-146 10 -264 10q-99 0 -147.5 -28t-62.5 -83t-14 -163h-142q12 176 48 258 t119 111t257 29q166 0 248 -11q124 -13 193.5 -67t96 -141t26.5 -213v-200v-90q0 -166 -19 -272.5t-95 -182t-234 -87.5h-172q-103 0 -205 6q-275 26 -275 309z" />
<glyph unicode="&#xde;" horiz-adv-x="1478" d="M10 0v1252h138v-554h296q0 153 9.5 245t47 165.5t121 113.5t228.5 40h64q194 0 297 -26t158 -116t55 -278q0 -298 -2 -446q-3 -118 -26 -196t-71 -126t-126.5 -70t-196.5 -22q-20 0 -58 2t-53 2q-154 0 -246 28t-142.5 108t-58.5 234v226l-296 -4v-578h-138zM586 610 l2 -200q2 -128 25 -191t85 -88t191 -25q162 0 238 17t114.5 84t42.5 217v412q0 150 -34 215t-102 79q-68 15 -228 15h-46q-118 0 -175 -20.5t-82 -84.5t-29 -200z" />
<glyph unicode="&#xdf;" horiz-adv-x="1030" d="M14 891q0 134 38 213.5t119 115.5t214 36h592v-1256h-137v508h-428q-82 0 -134 -20.5t-77 -68.5t-25 -130v-289h-146v322q0 226 204 239q-102 18 -149 62.5t-59 104.5t-12 163zM162 856q0 -94 27.5 -144t84.5 -69t156 -19h410v506h-459q-98 0 -145.5 -28.5t-60.5 -84 t-13 -161.5z" />
<glyph unicode="&#xe0;" horiz-adv-x="833" d="M18 264q0 110 42 168t115 77t185 19q104 0 172 -15t109 -73v102q0 110 -19 161t-70 67t-165 16q-124 0 -168 -34q-39 -26 -39 -96q0 -6 2 -15.5t2 -16.5h-135q0 164 83.5 210t263.5 46q135 0 215 -21t122.5 -88t42.5 -199v-572h-124l8 92q-50 -65 -121 -85.5t-177 -20.5 q-118 0 -191 21t-113 81t-40 176zM156 278q0 -110 44 -148t156 -38q86 0 146 8.5t103.5 44.5t43.5 113q0 108 -60.5 138t-182.5 30h-34q-144 0 -186 -39q-30 -25 -30 -109z" />
<glyph unicode="&#xe1;" horiz-adv-x="850" d="M10 891q0 80 35.5 139.5t111 93t191.5 33.5h37q10 0 32.5 -2t30.5 -2q91 0 129.5 23.5t38.5 75.5l142 4q-1 -39 -1.5 -64.5t-9.5 -47.5t-35 -40q-60 -58 -247 -58q-10 0 -33 2q-22 2 -34 2q-116 0 -179 -32q-63 -34 -63 -134v-42q98 54 231 53q169 0 255 -36.5 t117 -125.5t31 -260q0 -179 -18 -275t-97 -154t-249 -58q-164 0 -250.5 31t-124 115.5t-37.5 248.5v473q0 8 -2 20t-2 17zM148 391q0 -202 52 -260q38 -37 142 -37h64q84 0 133 13.5t77 54t33 120.5q3 70 3 202q0 128 -11 186.5t-57 87t-150 28.5h-28q-118 0 -171 -22 t-70 -81t-17 -189v-103z" />
<glyph unicode="&#xe2;" horiz-adv-x="790" d="M10 0v878h386q96 0 161 -10t113 -47q64 -46 63 -190q-1 -167 -107 -187q56 -14 85 -63t29 -121q0 -92 -26 -146t-74 -78t-108 -30t-160 -6h-362zM137 102h235q12 0 38 -2t38 -2q78 0 115 29q43 27 43 127q0 93 -45.5 118.5t-140.5 25.5h-60h-223v-296zM137 512h336 q57 1 84 10.5t38 36t11 82.5q0 81 -38 111q-39 26 -142 26q-24 0 -134 2t-155 2v-270z" />
<glyph unicode="&#xe3;" horiz-adv-x="692" d="M18 0v878h623v-106h-489v-772h-134z" />
<glyph unicode="&#xe4;" horiz-adv-x="833" d="M14 402q0 122 10 205t45 147t107 100q72 35 194 35q98 0 167 -26.5t115 -98.5l-7 114h127v-936q0 -132 -41.5 -203.5t-124 -98.5t-219.5 -27q-122 0 -194.5 19.5t-110 81.5t-37.5 184h125q3 -78 22.5 -116.5t60.5 -51t119 -12.5q100 0 156 13.5t86.5 60t30.5 140.5v176 q-38 -74 -110.5 -96t-178.5 -22q-135 0 -210.5 49t-103.5 138t-28 225zM152 410q0 -120 12 -181t64 -96q54 -35 168 -35q108 0 168.5 43t70.5 148q6 73 6 151q0 128 -12.5 194t-64.5 105t-168 39q-102 0 -153 -22.5t-71 -78.5t-20 -165v-72v-30z" />
<glyph unicode="&#xe5;" horiz-adv-x="833" d="M18 420q0 174 23 270t103.5 148.5t246.5 52.5t248.5 -34.5t113.5 -118.5t33 -254v-68h-630q0 -122 11 -184.5t62 -100t162 -37.5h35q110 0 166.5 26t56.5 120v28h137q0 -124 -44.5 -184t-121.5 -77q-76 -17 -208 -17q-124 0 -201 22t-118.5 71t-58 129.5t-16.5 207.5z M156 518h496q0 118 -15.5 173t-68 77t-166.5 22q-101 0 -153.5 -24t-72.5 -81.5t-20 -166.5z" />
<glyph unicode="&#xe6;" horiz-adv-x="1263" d="M14 0l398 473l-338 401h147l287 -352h39v356h129v-356h39l287 352h147l-338 -401l397 -473h-154l-339 420h-39v-420h-129v420h-39l-338 -420h-156z" />
<glyph unicode="&#xe7;" horiz-adv-x="833" d="M18 230q0 34 2 48h132q0 -78 19.5 -118t63 -54t125.5 -14h31q156 0 205 35q39 28 39 127q0 86 -40.5 109.5t-125.5 23.5h-53q-3 0 -12.5 2t-12.5 2h-186v121h299q82 2 108 30q27 28 27 110q0 80 -48.5 105t-140.5 25h-88q-84 0 -131 -27t-47 -110h-131q0 6 -2 15.5 t-2 15.5q0 96 54.5 143t131 58.5t185.5 11.5q204 1 284 -63q40 -28 52 -80t12 -122q0 -73 -28 -121t-84 -59q112 -30 112 -184q0 -121 -44 -179.5t-121 -74.5t-205 -16q-117 0 -195.5 14t-131.5 66t-53 160z" />
<glyph unicode="&#xe8;" horiz-adv-x="790" d="M10 297v581h136v-581q0 -80 16 -122t57.5 -59.5t122.5 -17.5q104 0 160 25t78 81t22 158v516h136v-878h-122v116q-55 -78 -122.5 -102t-179.5 -24q-156 0 -230 74t-74 233z" />
<glyph unicode="&#xe9;" horiz-adv-x="790" d="M10 297v581h136v-581q0 -80 16 -122t57.5 -59.5t122.5 -17.5q104 0 160 25t78 81t22 158v516h136v-878h-122v116q-55 -78 -122.5 -102t-179.5 -24q-156 0 -230 74t-74 233zM190 920v92h378v-92h-378z" />
<glyph unicode="&#xea;" horiz-adv-x="790" d="M6 878h136v-354h52l318 354h162l-375 -403l441 -475h-172l-374 424h-52v-424h-132z" />
<glyph unicode="&#xeb;" horiz-adv-x="833" d="M10 4l289 876h185l292 -876h-141l-239 778l-254 -778h-132z" />
<glyph unicode="&#xec;" horiz-adv-x="1085" d="M4 4v876h192l318 -786l318 786h198v-876h-120v760l-310 -760h-170l-307 760v-760h-119z" />
<glyph unicode="&#xed;" horiz-adv-x="811" d="M14 0v878h132v-346h478v348h130v-880h-134v416h-474v-416h-132z" />
<glyph unicode="&#xee;" horiz-adv-x="850" d="M14 381v84q0 160 28 250.5t108 135t237 44.5q169 0 255 -36.5t117 -125.5t31 -260q0 -179 -18 -275t-97 -154t-249 -58q-164 0 -250.5 31t-124 115.5t-37.5 248.5zM148 391q0 -202 52 -260q38 -37 142 -37h64q84 0 133 13.5t77 54t33 120.5q3 70 3 202q0 128 -11 186.5 t-57 87t-150 28.5h-28q-118 0 -171 -22t-70 -81t-17 -189v-103z" />
<glyph unicode="&#xef;" horiz-adv-x="811" d="M14 0v878h119v-114q50 77 124.5 106t176.5 29q120 0 189 -29.5t100 -99.5q31 -68 31 -188v-582h-134v572q0 89 -16 134.5t-62 64.5q-44 19 -136 19q-260 0 -260 -252v-538h-132z" />
<glyph unicode="&#xf0;" horiz-adv-x="833" d="M18 -377v1255h128l-4 -114q48 72 114.5 98.5t163.5 26.5q152 0 228.5 -50.5t99.5 -144.5q24 -94 24 -250q0 -118 -10.5 -195t-44 -136t-102 -91t-181.5 -32q-99 0 -171 24q-71 24 -117 92v-483h-128zM148 402q0 -105 16 -168.5t69.5 -99.5t157.5 -36q114 0 165.5 35 t65.5 97q13 62 13 180v51q0 126 -12 188.5t-63.5 97.5t-163.5 35t-165 -31.5t-68 -95t-15 -186.5v-67z" />
<glyph unicode="&#xf1;" horiz-adv-x="833" d="M18 469q0 155 33 245t117 132.5t238 42.5q169 0 260.5 -54.5t91.5 -214.5v-28h-127q0 80 -20.5 120t-65.5 55t-125 15q-120 0 -174 -23t-72 -83t-18 -192v-88q0 -116 13 -175.5t65 -90.5q52 -32 162 -32q106 0 155.5 14t71.5 61.5t22 148.5h131q0 -135 -37 -205.5 t-115 -96.5t-218 -26q-137 0 -215.5 27t-115.5 84t-47 137.5t-10 226.5z" />
<glyph unicode="&#xf2;" horiz-adv-x="1382" d="M18 0v878h128v-130q72 144 284 143q236 1 282 -143q86 148 296 147q116 0 185 -31.5t100.5 -99.5t31.5 -182v-582h-133v592q0 112 -42 153t-156 41q-76 0 -143 -23t-93 -79q-20 -50 -20 -146v-538h-136v582q-3 84 -18.5 125t-56.5 58t-129 17q-139 0 -195.5 -68 t-56.5 -210v-504h-128z" />
<glyph unicode="&#xf3;" horiz-adv-x="811" d="M6 878h136l274 -780l196 780h136l-248 -927q-28 -130 -104 -238.5t-185 -108.5q-25 0 -69 11v107q5 0 17.5 -2t16.5 -2q62 0 99 43t54 94t41 145h-46z" />
<glyph unicode="&#xf4;" horiz-adv-x="1298" d="M18 444q0 156 21 250t87 144.5t198 50.5q170 1 244 -135v124h126v-124q77 136 244 135q131 0 197.5 -50.5t88 -143.5t21.5 -251q0 -154 -20 -249.5t-84.5 -150t-192.5 -54.5q-186 0 -250 116v-483l-135 5v474q-38 -70 -99.5 -91t-154.5 -21q-125 0 -188.5 55t-83 150 t-19.5 249zM162 410q0 -166 35 -235t151 -77q90 0 137 36t61.5 100t14.5 168v67q0 170 -46.5 241.5t-168.5 71.5q-86 0 -125.5 -33t-49 -94t-9.5 -182v-63zM702 402q0 -79 6.5 -131.5t27 -91t62.5 -59.5q44 -22 112 -22q84 5 124 39t53 97.5t13 175.5v63q0 121 -10 182 t-49 94t-127 33q-82 0 -128 -32t-65 -100t-19 -181v-67z" />
<glyph unicode="&#xf5;" horiz-adv-x="833" d="M10 0l318 459l-283 419h149l202 -321l200 321h152l-279 -419l313 -459h-158l-228 356l-226 -356h-160z" />
<glyph unicode="&#xf6;" horiz-adv-x="868" d="M10 297v581h136v-581q0 -80 16 -122t57.5 -59.5t122.5 -17.5q104 0 160 25t78 81t22 158v516h136v-770h6q64 0 63 -69v-181h-127v142h-64v116q-55 -78 -122.5 -102t-179.5 -24q-156 0 -230 74t-74 233z" />
<glyph unicode="&#xf7;" horiz-adv-x="790" d="M10 536v342h136v-296l84 -260q-102 6 -158 46t-62 168zM142 542q0 5 2 19t2 21l128 -134q-6 0 -18 -2q-10 -2 -16 -2q-4 0 -15 2t-16 2q-25 2 -43 21q-24 23 -24 73zM230 322h372v-322h136v878h-136v-430h-328z" />
<glyph unicode="&#xf8;" horiz-adv-x="1362" d="M4 299v579h138v-594q0 -110 40 -150t154 -40q194 0 236 100q20 56 20 144v540h135v-579q2 -63 10.5 -101.5t29.5 -61.5t60 -32.5t103 -9.5q140 0 197 69t57 209v506h126v-878h-126v131q-36 -70 -123 -109.5t-183 -39.5q-91 0 -163.5 38t-98.5 111q-84 -145 -294 -145 q-115 0 -185 30.5t-101.5 98.5t-31.5 184z" />
<glyph unicode="&#xf9;" horiz-adv-x="1439" d="M4 299v579h138v-594q0 -110 40 -150t154 -40q194 0 236 100q20 56 20 144v540h135v-579q2 -63 10.5 -101.5t29.5 -61.5t60 -32.5t103 -9.5q140 0 197 69t57 209v506h126l5 -770q41 0 55 -16t14 -53v-185h-128v146h-72v131q-36 -70 -123 -109.5t-183 -39.5 q-91 0 -163.5 38t-98.5 111q-84 -145 -294 -145q-115 0 -185 30.5t-101.5 98.5t-31.5 184z" />
<glyph unicode="&#xfa;" horiz-adv-x="909" d="M18 776v102h240v-317h334q80 -4 138.5 -34.5t90 -85.5t33.5 -132q0 -119 -25 -185t-88 -95t-184 -29h-430v776h-109zM258 102h232q11 0 35.5 -2t37.5 -2q82 0 121 29q39 27 39 141v31q0 73 -44.5 109t-166.5 36h-254v-342z" />
<glyph unicode="&#xfb;" horiz-adv-x="987" d="M6 0v878h131v-317h336q122 -6 188.5 -70.5t67.5 -181.5q0 -120 -24.5 -185.5t-87.5 -94.5t-183 -29h-428zM133 102h233q10 0 36 -2q24 -2 38 -2q81 0 121 29q41 25 41 141v16q0 84 -43 122t-172 38h-254v-342zM803 0v878h135v-878h-135z" />
<glyph unicode="&#xfc;" horiz-adv-x="772" d="M4 0v878h129v-317h336q122 -6 188.5 -70.5t69.5 -181.5q0 -120 -24 -185.5t-86.5 -94.5t-182.5 -29h-430zM131 102h205h30q10 0 36 -2q24 -2 38 -2q77 0 117 29q43 27 43 141v16q0 84 -43.5 122t-171.5 38h-254v-342z" />
<glyph unicode="&#xfd;" horiz-adv-x="833" d="M20 322h128q0 -102 22 -149t73 -61t159 -14t158.5 31t64.5 89.5t14 172.5h-413v121h413q-2 118 -22 173t-74.5 76t-170.5 21q-80 0 -123.5 -15t-63 -55t-19.5 -120h-131v28q0 160 91.5 214.5t260.5 54.5q155 0 239.5 -42.5t117 -132.5t32.5 -245q0 -146 -10 -227 t-46.5 -137t-116 -83.5t-216.5 -27.5q-140 0 -217.5 26t-113.5 97t-36 205z" />
<glyph unicode="&#xfe;" horiz-adv-x="1143" d="M18 0v878h130v-346h166q6 135 37.5 212.5t111 114t225.5 36.5q128 0 206 -20t120 -66.5t59 -125.5t17 -210q0 -138 -8 -215.5t-41.5 -140.5t-108.5 -97t-205 -34q-122 0 -200 16t-125 58t-67.5 119t-20.5 202v35h-166v-416h-130zM448 391q0 -204 52 -260q38 -37 145 -37 h59q84 0 134 13.5t77.5 54t32.5 120.5q6 102 6 202q0 96 -5 148t-25 86.5t-65 51t-126 16.5h-29q-118 0 -170 -22t-69 -81t-17 -189v-103z" />
<glyph unicode="&#xff;" horiz-adv-x="790" d="M10 568q0 122 22 187.5t82 94t175 28.5h444v-878h-131v322h-342q-40 0 -69 -28t-29 -54l-4 -240h-134l6 221l-2 9q0 54 29 105t70 52q-58 42 -87.5 80.5t-29.5 100.5zM133 596q1 -166 181 -166q8 0 33 3t38 3h217v342h-295q-95 0 -131 -24q-39 -30 -39 -144q0 -2 -2 -7 t-2 -7z" />
<glyph unicode="&#x152;" />
<glyph unicode="&#x153;" />
<glyph unicode="&#x178;" horiz-adv-x="790" d="M10 568q0 122 22 187.5t82 94t175 28.5h444v-878h-131v322h-342q-40 0 -69 -28t-29 -54l-4 -240h-134l6 221l-2 9q0 54 29 105t70 52q-58 42 -87.5 80.5t-29.5 100.5zM133 596q1 -166 181 -166q8 0 33 3t38 3h217v342h-295q-95 0 -131 -24q-39 -30 -39 -144q0 -2 -2 -7 t-2 -7z" />
<glyph unicode="&#x2c6;" horiz-adv-x="889" d="M6 704l326 552h168l326 -552h-138l-272 453l-270 -453h-140z" />
<glyph unicode="&#x2dc;" horiz-adv-x="966" d="M4 553q97 211 256 211q49 0 94.5 -18t106.5 -51.5t104 -51t91 -17.5q92 0 170 142l77 -64q-42 -88 -108.5 -147t-149.5 -59q-48 0 -90.5 15t-100.5 46t-100 49t-86 23q-112 1 -184 -137z" />
<glyph unicode="&#x2000;" horiz-adv-x="704" />
<glyph unicode="&#x2001;" horiz-adv-x="1409" />
<glyph unicode="&#x2002;" horiz-adv-x="704" />
<glyph unicode="&#x2003;" horiz-adv-x="1409" />
<glyph unicode="&#x2004;" horiz-adv-x="469" />
<glyph unicode="&#x2005;" horiz-adv-x="352" />
<glyph unicode="&#x2006;" horiz-adv-x="234" />
<glyph unicode="&#x2007;" horiz-adv-x="234" />
<glyph unicode="&#x2008;" horiz-adv-x="176" />
<glyph unicode="&#x2009;" horiz-adv-x="281" />
<glyph unicode="&#x200a;" horiz-adv-x="78" />
<glyph unicode="&#x2010;" horiz-adv-x="497" d="M4 398v124h436v-124h-436z" />
<glyph unicode="&#x2011;" horiz-adv-x="497" d="M4 398v124h436v-124h-436z" />
<glyph unicode="&#x2012;" horiz-adv-x="497" d="M4 398v124h436v-124h-436z" />
<glyph unicode="&#x2013;" />
<glyph unicode="&#x2014;" />
<glyph unicode="&#x2018;" horiz-adv-x="239" d="M14 903v65q32 0 60 24t28 54q0 16 -8 36h-59v174h149v-185q0 -87 -26 -129.5t-105 -42.5q-6 0 -18.5 2t-20.5 2z" />
<glyph unicode="&#x2019;" horiz-adv-x="239" d="M14 903v65q32 0 60 24t28 54q0 16 -8 36h-59v174h149v-185q0 -87 -26 -129.5t-105 -42.5q-6 0 -18.5 2t-20.5 2z" />
<glyph unicode="&#x201a;" />
<glyph unicode="&#x201c;" horiz-adv-x="497" d="M4 1256h154l-25 -502h-109zM278 1256h158l-24 -502h-109z" />
<glyph unicode="&#x201d;" horiz-adv-x="497" d="M4 1256h154l-25 -502h-109zM278 1256h158l-24 -502h-109z" />
<glyph unicode="&#x201e;" />
<glyph unicode="&#x2022;" horiz-adv-x="205" d="M6 0v172h150v-172h-150zM6 708v170h150v-170h-150z" />
<glyph unicode="&#x2026;" />
<glyph unicode="&#x202f;" horiz-adv-x="281" />
<glyph unicode="&#x2039;" horiz-adv-x="868" d="M10 568v126l811 386v-150l-655 -299l655 -303v-144z" />
<glyph unicode="&#x203a;" horiz-adv-x="889" d="M10 184v144l660 303l-660 303v146l816 -386v-126z" />
<glyph unicode="&#x205f;" horiz-adv-x="352" />
<glyph unicode="&#x2122;" />
<glyph unicode="&#x25fc;" horiz-adv-x="877" d="M0 0v878h878v-878h-878z" />
</font>
</defs>
</svg>
