<?xml version="1.0" standalone="no"?>
<!DOCTYPE svg PUBLIC "-//W3C//DTD SVG 1.1//EN" "http://www.w3.org/Graphics/SVG/1.1/DTD/svg11.dtd" >
<svg xmlns="http://www.w3.org/2000/svg" xmlns:xlink="http://www.w3.org/1999/xlink" version="1.1">
<metadata></metadata>
<defs>
<font id="eurostile_next_lt_prolight" horiz-adv-x="1050" >
<font-face units-per-em="2048" ascent="1434" descent="-614" />
<missing-glyph horiz-adv-x="505" />
<glyph unicode="&#xfb01;" horiz-adv-x="882" d="M43 905v78h127v94q0 185 52.5 255.5t195.5 70.5q62 0 117 -8v-80q-53 6 -97 6q-59 0 -92 -10t-51 -41t-22.5 -73t-4.5 -122v-92h230v-78h-230v-905h-98v905h-127zM641 0v983h98v-983h-98zM641 1237v156h98v-156h-98z" />
<glyph unicode="&#xfb02;" horiz-adv-x="882" d="M43 905v78h127v94q0 185 52.5 255.5t195.5 70.5q62 0 117 -8v-80q-53 6 -97 6q-59 0 -92 -10t-51 -41t-22.5 -73t-4.5 -122v-92h230v-78h-230v-905h-98v905h-127zM641 0v1393h98v-1393h-98z" />
<glyph horiz-adv-x="0" />
<glyph horiz-adv-x="682" />
<glyph unicode="&#xd;" horiz-adv-x="0" />
<glyph unicode=" "  horiz-adv-x="505" />
<glyph unicode="&#x09;" horiz-adv-x="505" />
<glyph unicode="&#xa0;" horiz-adv-x="505" />
<glyph unicode="!" horiz-adv-x="436" d="M164 0v174h108v-174h-108zM168 1393h100l-4 -1057h-92z" />
<glyph unicode="&#x22;" horiz-adv-x="641" d="M137 967v483h82v-483h-82zM422 967v483h82v-483h-82z" />
<glyph unicode="#" horiz-adv-x="1226" d="M98 446v76h240l76 432h-242v76h256l66 363h79l-63 -363h326l65 363h80l-63 -363h243v-76h-258l-76 -432h263v-76h-277l-78 -446h-82l78 446h-325l-78 -446h-82l78 446h-226zM420 522h325l78 432h-327z" />
<glyph unicode="$" horiz-adv-x="1249" d="M133 377v57h98v-49q0 -72 4 -116t19 -82.5t38 -57.5t67.5 -33.5t100.5 -18.5t144 -5v600q-97 8 -163 17.5t-119 27t-83.5 40.5t-50.5 59.5t-27 81.5t-7 110v32q0 111 19.5 178.5t72.5 110.5t136.5 59t221.5 17v131h64v-133q93 -1 157 -8.5t114.5 -25.5t81 -45t50 -71.5 t26.5 -100.5t7 -136v-37h-98v33q0 66 -5.5 110.5t-20.5 80.5t-38 57t-62.5 35t-89 19.5t-122.5 6.5v-563q102 -8 171.5 -18.5t124 -29t85.5 -42.5t51.5 -63t27.5 -86t7 -116v-30q0 -81 -7.5 -137t-29 -100.5t-53.5 -71t-87 -44t-123 -24.5t-167 -8v-154h-64v154 q-108 1 -178.5 6.5t-126.5 22.5t-85.5 42t-49.5 71.5t-25.5 102.5t-5.5 144zM254 1010q0 -57 7 -91.5t26.5 -64t59.5 -45.5t100.5 -26.5t156.5 -16.5v555q-113 0 -179 -11.5t-105.5 -45.5t-52.5 -84.5t-13 -139.5v-30zM668 72q81 1 134.5 5.5t97 17.5t67.5 32.5t40 54.5 t21.5 78t5.5 109v30q0 53 -4.5 87.5t-19.5 64.5t-38 47t-66 31.5t-98.5 22t-139.5 14.5v-594z" />
<glyph unicode="%" horiz-adv-x="1394" d="M127 1075v35q0 123 19.5 182.5t64 81t137.5 21.5h17q71 0 110.5 -10t66 -42t35.5 -85.5t9 -147.5v-35q0 -75 -6.5 -123t-20 -81.5t-40.5 -50t-62 -23t-92 -6.5h-17q-70 0 -109.5 10t-66.5 41.5t-36 85.5t-9 147zM201 1073q0 -78 5 -120t23 -66.5t43.5 -30.5t75.5 -6h17 q50 0 75.5 6t43.5 30.5t23 66.5t5 120v39q0 103 -12 149t-40.5 61t-94.5 15h-17q-66 0 -94.5 -15t-40.5 -61t-12 -149v-39zM393 0l525 1393h73l-524 -1393h-74zM811 283v34q0 123 19.5 182.5t64 81t137.5 21.5h17q71 0 110.5 -10t66 -42t35.5 -85.5t9 -147.5v-34 q0 -94 -9 -147.5t-35.5 -85.5t-66 -42t-110.5 -10h-17q-93 0 -137.5 21.5t-64 81t-19.5 182.5zM885 281q0 -78 5 -120t23 -67t43.5 -31t75.5 -6h17q50 0 75.5 6t43.5 31t23 67t5 120v38q0 103 -12 149t-40.5 61.5t-94.5 15.5h-17q-66 0 -94.5 -15.5t-40.5 -61.5t-12 -149 v-38z" />
<glyph unicode="&#x26;" horiz-adv-x="1404" d="M119 414v28q0 193 43.5 276.5t171.5 96.5q-57 51 -82 107t-25 153v33q0 75 12 124.5t38 85t75.5 53.5t116 26t168.5 8h35q90 0 150 -5.5t106.5 -21t72 -37.5t42 -62.5t21.5 -88t5 -121.5v-55h-96v57q0 57 -3 92t-15 65.5t-30.5 46t-54 26.5t-81 14.5t-115.5 3.5h-35 q-84 0 -136 -6t-89 -18.5t-54.5 -39.5t-24.5 -62t-7 -93v-27q0 -92 27.5 -139.5t127.5 -132.5l590 -504q8 76 8 221v158h88v-166q0 -193 -16 -281l199 -168l-56 -63l-170 141q-28 -56 -68.5 -86t-135 -47.5t-258.5 -17.5h-35q-117 0 -194 6t-137 26t-92.5 47t-53.5 79 t-27 112.5t-6 155.5zM221 422q0 -82 4.5 -131.5t21 -92t41.5 -63.5t75 -36t111 -19t159 -4h31q145 0 223 13t111.5 38.5t54.5 75.5l-662 555q-46 -4 -76 -16.5t-49.5 -33t-29 -59.5t-12.5 -83.5t-3 -116.5v-27z" />
<glyph unicode="'" horiz-adv-x="356" d="M137 967v483h82v-483h-82z" />
<glyph unicode="(" horiz-adv-x="559" d="M115 676v41q0 125 2.5 216t11 165t18.5 122.5t30.5 85t41 55.5t56.5 30.5t70.5 14.5t88.5 3h27v-82h-27q-40 0 -63.5 -2t-49.5 -12t-39.5 -26t-28.5 -48.5t-21 -75t-12 -110t-7.5 -149t-1.5 -195.5v-25q0 -152 3 -249.5t14 -170.5t24 -109.5t42 -58t58 -26t82 -4.5h27 v-82h-27q-54 0 -88.5 3t-70.5 14.5t-56.5 30.5t-41 55.5t-30.5 85t-18.5 122.5t-11 165t-2.5 216z" />
<glyph unicode=")" horiz-adv-x="559" d="M98 -16v82h27q53 0 82 4.5t58 26t42 58t24 109.5t14 170.5t3 249.5v25q0 114 -1.5 195.5t-7.5 149t-12 110t-21 75t-28.5 48.5t-39.5 26t-49.5 12t-63.5 2h-27v82h27q54 0 88 -3t70 -14.5t56.5 -30.5t41 -55.5t31 -85t19 -122.5t11 -165t2.5 -216v-41q0 -125 -2.5 -216 t-11 -165t-19 -122.5t-31 -85t-41 -55.5t-56.5 -30.5t-70 -14.5t-88 -3h-27z" />
<glyph unicode="*" horiz-adv-x="837" d="M106 924l216 112l26 -43l-207 -131zM106 1198l35 62l207 -132l-26 -43zM381 713l10 258h55l11 -258h-76zM381 1409h76l-11 -258h-55zM489 993l27 43l215 -112l-35 -62zM489 1128l207 132l35 -62l-215 -113z" />
<glyph unicode="+" d="M123 584v80h358v376h86v-376h361v-80h-361v-383h-86v383h-358z" />
<glyph unicode="," horiz-adv-x="362" d="M94 -170q42 0 58 21.5t16 80.5v68h-41v174h109v-240q0 -94 -32 -128.5t-110 -34.5v59z" />
<glyph unicode="-" horiz-adv-x="731" d="M121 471v90h489v-90h-489z" />
<glyph unicode="." horiz-adv-x="362" d="M127 0v174h109v-174h-109z" />
<glyph unicode="/" horiz-adv-x="815" d="M96 -16l539 1425h84l-539 -1425h-84z" />
<glyph unicode="0" horiz-adv-x="1247" d="M119 653v88q0 114 3.5 195t14.5 152t26 117.5t43.5 84t62 58t85.5 34.5t110 18.5t140 4.5h37q111 0 181.5 -8.5t129 -36t89.5 -70t52.5 -121.5t28 -177.5t6.5 -250.5v-88q0 -114 -3.5 -195.5t-14.5 -152.5t-26 -117.5t-43.5 -84t-62 -58t-86 -34.5t-110.5 -18.5 t-141 -4.5h-37q-82 0 -140 4.5t-110 18.5t-85.5 34.5t-62 58t-43.5 84t-26 117.5t-14.5 152.5t-3.5 195.5zM219 649q0 -104 2 -175t10.5 -134t19.5 -101.5t34 -70.5t48 -47.5t68.5 -26.5t89 -13.5t115.5 -2.5h33q69 0 114.5 2.5t89.5 13.5t69 26.5t48.5 47.5t34.5 70.5 t19.5 101.5t11 134t2.5 175v94q0 82 -1.5 143t-6.5 117t-11.5 94t-20 72.5t-27.5 55.5t-38.5 38.5t-49.5 26.5t-63.5 15.5t-77 8t-93.5 1.5h-33q-70 0 -115.5 -2.5t-89 -13.5t-68.5 -26.5t-48 -48t-34 -70.5t-19.5 -101.5t-10.5 -134.5t-2 -175v-94z" />
<glyph unicode="1" horiz-adv-x="757" d="M35 997l360 396h137v-1393h-100v1292h-4l-324 -362z" />
<glyph unicode="2" horiz-adv-x="1206" d="M125 166q0 102 6 167.5t27.5 119.5t51 84t89.5 54.5t128 38t181 27.5q87 11 142.5 22t102 29t70.5 39t41 57t22 79t5 108v41q0 93 -12.5 145t-53.5 85.5t-107.5 44t-184.5 10.5h-29q-83 0 -136 -4.5t-95.5 -19t-65 -35t-37 -60.5t-18.5 -87.5t-4 -123.5v-41h-98v39 q0 89 6.5 149t25.5 110t49.5 78.5t82.5 48.5t120.5 27t167.5 7h27q99 0 168.5 -6.5t123 -24t85.5 -43.5t52.5 -69.5t28 -97.5t7.5 -132v-37q0 -79 -8.5 -135.5t-31 -101t-54.5 -73.5t-86 -51.5t-118 -36.5t-157 -26q-79 -11 -128 -18.5t-97 -20.5t-74 -25t-50.5 -35 t-34.5 -45.5t-18.5 -62.5t-10 -81t-1.5 -105v-92h877v-86h-975q-2 45 -2 166z" />
<glyph unicode="3" horiz-adv-x="1224" d="M125 401v43h98v-43q0 -76 3.5 -122.5t18.5 -86.5t36.5 -59.5t65 -33.5t96.5 -17.5t139 -3.5h36q91 0 150 4t106 16.5t72 31t41.5 53.5t21.5 76.5t5 107.5v39q0 161 -51 212.5t-205 51.5h-289v88h272q78 0 123 9t75 36.5t40 73.5t10 124v39q0 60 -4.5 98.5t-19 72 t-38.5 51.5t-67 31t-99 17.5t-140 4.5h-27q-81 0 -131.5 -3.5t-93 -17t-64.5 -33.5t-38 -58.5t-20.5 -86.5t-4.5 -123v-45h-97v45q0 88 6.5 147.5t25.5 108.5t49 76.5t82 47t119 26t165 6.5h31q102 0 172.5 -6.5t124.5 -23.5t86 -42t52 -67.5t27 -94t7 -127.5v-34 q0 -148 -35 -208.5t-127 -82.5v-4q66 -14 104 -41.5t61 -94.5t23 -180v-37q0 -78 -7.5 -131.5t-29 -98t-55.5 -70t-92 -43.5t-133 -24.5t-183 -6.5h-38q-102 0 -170 6t-121.5 24.5t-83 45.5t-49 76.5t-25.5 109t-6 151.5z" />
<glyph unicode="4" horiz-adv-x="1247" d="M100 336v113l727 944h154v-971h170v-86h-170v-336h-100v336h-781zM201 422h680v881h-7l-673 -877v-4z" />
<glyph unicode="5" horiz-adv-x="1230" d="M129 387v33h98v-31q0 -74 4.5 -120.5t20.5 -84t38 -56t67 -31.5t97 -16t138 -3h37q91 0 150.5 5t105.5 21t70.5 37.5t40 62.5t20 88.5t4.5 123.5v47q0 81 -4.5 132.5t-20 94.5t-39 65t-67.5 37.5t-98 20t-138 4.5h-41q-194 0 -263.5 -22t-100.5 -101h-98v699h944v-84 h-848v-518h2q22 45 60.5 69t115.5 35.5t211 11.5h43q98 0 164.5 -7t118.5 -27t82 -49.5t49 -80.5t25.5 -113t6.5 -155v-59q0 -89 -7 -149.5t-28 -111.5t-54.5 -80.5t-90.5 -50t-132 -28.5t-183 -8h-41q-103 0 -171 5.5t-122.5 23t-84 43.5t-49.5 73.5t-26 106t-6 147.5z" />
<glyph unicode="6" horiz-adv-x="1228" d="M123 489v246q0 117 3.5 201t15 156.5t26.5 118.5t44.5 83.5t62.5 57t87 32.5t111 17t141 4h33q96 0 161.5 -6t117.5 -23t82 -42.5t50 -70.5t27 -101.5t7 -139.5v-41h-99v39q0 68 -5 112t-20.5 79t-37.5 53.5t-64 31t-92 16t-129 3.5h-29q-70 0 -114.5 -2.5t-89 -12 t-69.5 -24t-49 -44t-35 -66t-20 -95t-11.5 -126.5t-2.5 -165v-116h2q22 52 62.5 82.5t118.5 46.5t204 16h33q101 0 169 -5.5t123.5 -22.5t87.5 -43.5t54 -72t29.5 -103.5t7.5 -144v-45q0 -80 -7.5 -135.5t-28.5 -100.5t-54 -72t-89 -45t-128 -25t-176 -7h-35q-82 0 -141 4 t-109.5 15.5t-83.5 27.5t-60 45.5t-41.5 64t-24 88.5t-12.5 113t-3 143zM223 444q0 -85 5 -139.5t21.5 -98t40 -66.5t69.5 -38t101 -19.5t142 -4.5h29q88 0 146 4t103.5 17.5t70 33t40.5 55.5t20.5 79t4.5 110v35q0 69 -5 113.5t-21 81.5t-41 57t-70.5 34t-103 18.5 t-144.5 4.5h-29q-109 0 -176.5 -10t-115.5 -37.5t-67.5 -75t-19.5 -123.5v-31z" />
<glyph unicode="7" horiz-adv-x="1165" d="M80 1305v88h1005v-86l-696 -1307h-113l701 1300v5h-897z" />
<glyph unicode="8" horiz-adv-x="1230" d="M117 348v25q0 100 13.5 166t43.5 104t68 55.5t96 24.5v4q-76 11 -117 39t-62.5 93.5t-21.5 182.5v27q0 70 8 119.5t29 88.5t53 62.5t85 38.5t120 21t162 6h41q146 0 231 -13.5t138.5 -53t71.5 -101.5t18 -168v-27q0 -117 -21.5 -182.5t-63 -93.5t-118.5 -39v-4 q58 -7 96.5 -24.5t68.5 -55.5t44 -104t14 -166v-25q0 -77 -6.5 -128t-26.5 -94t-52 -67.5t-87.5 -41.5t-128 -23t-178.5 -6h-39q-105 0 -177.5 6t-128 23t-87.5 41.5t-52 67.5t-27 94t-7 128zM219 360q0 -64 4 -104t19 -74.5t38.5 -52t68 -30.5t102 -17t145.5 -4h37 q89 0 146.5 4t102.5 17t68.5 30.5t38.5 52t19 74.5t4 104v29q0 66 -5.5 109.5t-23 77.5t-42.5 53t-70.5 31t-99.5 16t-138 4h-37q-83 0 -137 -4t-99.5 -16t-70 -31t-42 -53t-23 -77.5t-5.5 -109.5v-29zM238 1032q0 -60 4 -98t18.5 -70t37 -48.5t65 -28.5t96.5 -15.5 t137 -3.5h37q85 0 139 3.5t96.5 15t64.5 27.5t36.5 49t18 70t3.5 99v29q0 67 -8.5 108t-29 72.5t-63 46.5t-101.5 22t-154 7h-41q-78 0 -131 -4t-94.5 -15.5t-65.5 -29t-39.5 -47.5t-20.5 -67.5t-5 -92.5v-29z" />
<glyph unicode="9" horiz-adv-x="1228" d="M113 975v45q0 80 7.5 135.5t28.5 100.5t54 72t89 45t128 25t176 7h35q82 0 141 -4t109.5 -15.5t83.5 -27.5t60 -46t41.5 -64.5t24 -88.5t12.5 -113t3 -143v-246q0 -117 -4 -201.5t-15.5 -156t-27 -118t-45.5 -83.5t-63.5 -57t-88 -32.5t-111.5 -16.5t-141 -4h-32 q-95 0 -161.5 6.5t-119 24.5t-84 44.5t-52 71t-28.5 100.5t-8 136v41h98v-39q0 -78 9.5 -127t31 -84t65 -52.5t101 -24.5t150.5 -7h28q70 0 114.5 2.5t89.5 12t70.5 24t50 43.5t36 65.5t21 95t12 126.5t2.5 165v117h-3q-22 -52 -62.5 -82.5t-118.5 -46.5t-204 -16h-32 q-101 0 -169 5.5t-123.5 22.5t-87.5 43.5t-54 72t-29.5 103.5t-7.5 144zM213 981q0 -69 5 -113.5t21 -81.5t41 -57t70.5 -34t103 -18.5t144.5 -4.5h29q109 0 176.5 10t115.5 37.5t67.5 75t19.5 123.5v30q0 85 -5 139.5t-21.5 98.5t-40 67t-69.5 38t-101 19.5t-142 4.5h-29 q-88 0 -146 -4t-103.5 -17.5t-70 -33t-40.5 -55.5t-20.5 -79t-4.5 -110v-35z" />
<glyph unicode=":" horiz-adv-x="391" d="M141 0v174h109v-174h-109zM141 809v174h109v-174h-109z" />
<glyph unicode=";" horiz-adv-x="391" d="M109 -170q42 0 57.5 21.5t15.5 80.5v68h-41v174h109v-240q0 -94 -32 -128.5t-109 -34.5v59zM141 809v174h109v-174h-109z" />
<glyph unicode="&#x3c;" d="M123 580v86l805 372v-88l-713 -327v-2l713 -326v-88z" />
<glyph unicode="=" d="M123 399v80h805v-80h-805zM123 760v80h805v-80h-805z" />
<glyph unicode="&#x3e;" d="M123 207v88l713 326v2l-713 327v88l805 -372v-86z" />
<glyph unicode="?" horiz-adv-x="1083" d="M113 950v56q0 87 7 147t27 106.5t49.5 73t80.5 43.5t113 23t155 6h30q88 0 151 -8t109.5 -27t75.5 -45.5t46 -70t23.5 -94t6.5 -122.5v-34q0 -102 -12 -165.5t-45.5 -111.5t-90 -74.5t-149.5 -46.5q-99 -22 -129.5 -53.5t-30.5 -110.5v-34h-94v36q0 110 40.5 159.5 t158.5 76.5q60 14 96.5 25t68 29t46.5 37.5t26 54t14 74t3 101.5v31q0 62 -4.5 103.5t-17.5 75.5t-33.5 53t-57.5 32.5t-84 18t-117 4.5h-30q-78 0 -127.5 -4t-90 -17.5t-62 -33.5t-36 -58.5t-18.5 -85t-4 -119.5v-51h-94zM430 0v174h109v-174h-109z" />
<glyph unicode="@" horiz-adv-x="1658" d="M135 465v135q0 122 5 209.5t20.5 162t36 122t60.5 85.5t84 58t117 33t149 16.5t190 3.5h61q95 0 161.5 -2t132.5 -9.5t109 -18t85 -31.5t66.5 -46t47 -65.5t33.5 -85.5t19.5 -111.5t11 -138t2.5 -168.5v-102q0 -82 -4 -138t-15 -98.5t-26.5 -66.5t-43.5 -39t-61 -20 t-84 -5q-98 0 -139 27.5t-55 101.5h-4q-23 -76 -78.5 -110.5t-179.5 -34.5h-35q-65 0 -109 6t-81.5 23.5t-59.5 46t-37 75.5t-21 109.5t-6 151.5v34q0 108 9 177t28 117t57 72t88 34t130 10h35q125 0 177.5 -30.5t80.5 -120.5h4v135h78v-596q0 -69 12 -102.5t37 -44.5 t75 -11q38 0 58.5 2t40.5 13.5t28 28t15 53.5t8.5 82t1.5 120v92q0 93 -1.5 158.5t-9 128.5t-16 103.5t-28.5 78.5t-40 59.5t-58 40.5t-74.5 27.5t-97 15t-119 8t-146.5 1.5h-63q-105 0 -174 -3t-135 -15t-104 -29.5t-73 -53.5t-51.5 -79t-29 -114t-16 -150.5t-3.5 -196.5 v-107q0 -93 2 -161t10 -130.5t17 -105t30 -80.5t42 -61t59.5 -42.5t76.5 -29t98.5 -16t120 -8t146.5 -1.5h64q177 0 281.5 8t159.5 30.5t71 50.5t16 79v19h82v-21q0 -93 -47.5 -140.5t-176.5 -69t-384 -21.5h-66q-159 0 -252 6t-179 32t-126.5 67.5t-72 123t-40 186.5 t-8.5 271zM575 545q0 -91 7.5 -149.5t22.5 -97t45.5 -57t67.5 -25.5t99 -7h33q53 0 88 4.5t64 19t45 36.5t27 61.5t14.5 89.5t3.5 125v28q0 196 -50 266t-194 70h-33q-55 0 -89.5 -4t-63.5 -17.5t-44 -34.5t-26 -61t-14 -90.5t-3 -128.5v-28z" />
<glyph unicode="A" horiz-adv-x="1232" d="M23 0l522 1393h157l508 -1393h-110l-119 330h-727l-123 -330h-108zM281 414h673l-323 899h-15z" />
<glyph unicode="B" horiz-adv-x="1265" d="M152 0v1393h569q122 0 195.5 -13.5t123.5 -52.5t69 -105t19 -175q0 -158 -43.5 -228.5t-142.5 -89.5v-4q83 -12 131.5 -48.5t72 -109t23.5 -192.5q0 -116 -20 -187t-70.5 -114t-126.5 -58.5t-200 -15.5h-600zM256 88h483q105 0 165 11t98 45.5t50.5 89t12.5 149.5 q0 120 -29 186t-82.5 89.5t-146.5 23.5h-551v-594zM256 766h541q66 0 106 10t69.5 39t41.5 82t12 139q0 88 -13 139.5t-51 81.5t-94.5 40t-154.5 10h-457v-541z" />
<glyph unicode="C" horiz-adv-x="1312" d="M117 653v88q0 109 4.5 189.5t17 150t31 116.5t50 85t70 60.5t94.5 37t120 20t151 5.5h37q103 0 177 -7.5t131 -25.5t92.5 -45.5t58 -72t31 -99t8.5 -131.5v-35h-100v29q0 62 -6.5 105t-24.5 77t-45.5 55t-73.5 34.5t-105 18.5t-143 5h-35q-99 0 -160 -6.5t-114.5 -29 t-81 -58t-48 -103t-26.5 -154.5t-6 -221v-88q0 -98 3.5 -168.5t14 -131.5t24.5 -101.5t40.5 -72.5t57 -50t78 -29.5t99.5 -15.5t126 -4h34q102 0 168.5 8.5t114 27.5t72 55t35 85t10.5 125v25h102v-33q0 -93 -15 -156.5t-48 -109.5t-93 -71t-142.5 -36.5t-203.5 -11.5h-36 q-89 0 -153.5 5t-122 19.5t-96 36t-70.5 59.5t-50.5 85t-31 117t-17 151.5t-4.5 191.5z" />
<glyph unicode="D" horiz-adv-x="1384" d="M152 0v1393h540q95 0 162 -4t128 -17.5t100.5 -33.5t73 -56.5t52 -82t32 -115t18 -150.5t4.5 -193v-90q0 -111 -4 -190t-17 -148.5t-31 -115t-51 -82.5t-72.5 -57.5t-100.5 -34.5t-129.5 -18.5t-164.5 -4.5h-540zM256 90h434q83 0 138 3t107 13.5t82.5 26.5t58.5 47.5 t41.5 69.5t23.5 99.5t13 131t3 170.5v92q0 100 -3.5 171t-14.5 131.5t-25 99t-42.5 69.5t-59 47t-82.5 26t-105.5 13t-134.5 3h-434v-1213z" />
<glyph unicode="E" horiz-adv-x="1101" d="M152 0v1393h864v-90h-760v-535h721v-88h-721v-590h764v-90h-868z" />
<glyph unicode="F" horiz-adv-x="1058" d="M152 0v1393h858v-90h-752v-566h713v-88h-713v-649h-106z" />
<glyph unicode="G" horiz-adv-x="1318" d="M117 651v90q0 145 9.5 244.5t35 176.5t62.5 122t101 73t141 38t191 10h37q152 0 245.5 -17.5t151 -63t78.5 -115t21 -183.5v-29h-103v29q0 92 -16 145.5t-62.5 87t-119.5 45t-197 11.5h-33q-98 0 -160 -7t-115 -30t-80.5 -59.5t-47.5 -104t-26.5 -153.5t-6.5 -218v-92 q0 -129 6.5 -215t27 -153.5t49 -104.5t80.5 -61t114 -31.5t157 -7.5h33q89 0 148 5t108 20t76 38.5t46 65t25.5 95t6.5 132.5v150h-484v82h586v-222q0 -97 -9.5 -165.5t-34 -121t-60.5 -84t-96 -51.5t-132.5 -27t-177.5 -7h-37q-116 0 -193.5 10t-141 38.5t-100 73 t-61.5 121.5t-33.5 176t-8.5 244z" />
<glyph unicode="H" horiz-adv-x="1366" d="M152 0v1393h104v-619h854v619h104v-1393h-104v680h-854v-680h-104z" />
<glyph unicode="I" horiz-adv-x="407" d="M152 0v1393h104v-1393h-104z" />
<glyph unicode="J" horiz-adv-x="1040" d="M49 401v39h101v-32q0 -79 3 -127t15 -88.5t28.5 -59.5t51.5 -33t76 -17t110 -3h33q79 0 126.5 4t88 20t60 38.5t33 70t17 104t3.5 150.5v926h104v-924q0 -110 -5.5 -180t-24 -128t-46 -88.5t-79 -51t-114.5 -27t-161 -6.5h-39q-87 0 -142 5t-101 22.5t-70 43.5t-41 75.5 t-22 110.5t-5 156z" />
<glyph unicode="K" horiz-adv-x="1234" d="M152 0v1393h104v-641h164l624 641h136l-676 -680l713 -713h-146l-653 668h-162v-668h-104z" />
<glyph unicode="L" horiz-adv-x="987" d="M152 0v1393h104v-1303h707v-90h-811z" />
<glyph unicode="M" horiz-adv-x="1738" d="M152 0v1393h176l542 -1289h7l538 1289h172v-1393h-102v1309h-4l-549 -1309h-119l-555 1309h-4v-1309h-102z" />
<glyph unicode="N" horiz-adv-x="1411" d="M152 0v1393h170l829 -1301h6v1301h103v-1393h-170l-830 1303h-6v-1303h-102z" />
<glyph unicode="O" horiz-adv-x="1368" d="M117 649v92q0 146 9 245.5t34.5 176.5t63 121.5t102.5 73t144 38t196 9.5h36q117 0 196 -9.5t144 -38t102.5 -73t63 -121.5t34.5 -176.5t9 -245.5v-92q0 -108 -5 -189.5t-18.5 -150t-32.5 -116t-51.5 -85t-71.5 -59.5t-96.5 -36.5t-121.5 -19.5t-152 -5h-36q-88 0 -152 5 t-121.5 19.5t-96.5 36.5t-71.5 59.5t-51.5 85t-32.5 116t-18.5 150t-5 189.5zM223 649q0 -97 3.5 -167.5t13.5 -131t24.5 -100.5t40.5 -72t56.5 -49.5t78 -29.5t100 -15.5t126.5 -3.5h36q74 0 126.5 3.5t100 15.5t78 29.5t56.5 49.5t40.5 72t24.5 100.5t13.5 131t3.5 167.5 v94q0 97 -3.5 167.5t-13.5 131.5t-24.5 100.5t-40.5 72t-56.5 50t-78 29t-100 15.5t-126.5 4h-36q-74 0 -126.5 -4t-100 -15.5t-78 -29t-56.5 -50t-40.5 -72t-24.5 -100.5t-13.5 -131.5t-3.5 -167.5v-94z" />
<glyph unicode="P" horiz-adv-x="1234" d="M152 0v1393h526q104 0 173.5 -5.5t126 -22.5t88.5 -42.5t53.5 -71.5t28.5 -103.5t7 -143.5v-43q0 -84 -8.5 -143t-31 -104t-55.5 -72t-89 -44t-124 -23t-167 -6h-424v-569h-104zM256 659h408q91 0 150 4t105 17.5t69.5 32t39 55.5t19.5 79t4 111v48q0 70 -4 112.5t-20 79 t-39.5 54.5t-70.5 31t-105 16.5t-150 3.5h-406v-644z" />
<glyph unicode="Q" horiz-adv-x="1370" d="M117 649v92q0 143 9.5 242.5t35.5 176t64 122t102.5 74.5t143.5 39t194 10h36q115 0 194 -10t143.5 -39t102.5 -74.5t64 -122t35.5 -176t9.5 -242.5v-92q0 -333 -65 -471l121 -106l-60 -70l-114 98q-59 -63 -160.5 -87.5t-270.5 -24.5h-36q-115 0 -194 10t-143.5 39 t-102.5 74t-64 121.5t-35.5 175.5t-9.5 241zM223 649q0 -127 7 -212.5t27 -152t49.5 -104t82.5 -61.5t116.5 -31.5t160.5 -7.5h36q143 0 224.5 18.5t128.5 69.5l-344 303l65 72l326 -291q43 112 43 397v94q0 127 -7 212.5t-27 152t-49.5 104t-82 61.5t-116.5 32t-161 8h-36 q-97 0 -161 -8t-116.5 -32t-82 -61.5t-49.5 -104t-27 -152t-7 -212.5v-94z" />
<glyph unicode="R" horiz-adv-x="1282" d="M152 0v1393h565q91 0 155 -6.5t113.5 -24.5t79.5 -44t49 -69.5t26 -97.5t7 -131v-53q0 -117 -22.5 -186t-62 -99.5t-108.5 -44.5v-2q78 -15 118 -51.5t56.5 -111t16.5 -214.5v-258h-107v186q0 72 -1.5 119t-7.5 92t-14 71t-25.5 49.5t-37.5 34.5t-54.5 19.5t-72.5 10.5 t-94 2h-475v-584h-104zM256 674h528q146 0 201 60.5t55 217.5v56q0 65 -4.5 107t-19 77.5t-37.5 55t-63 33t-91.5 18t-128.5 4.5h-440v-629z" />
<glyph unicode="S" horiz-adv-x="1241" d="M121 381v53h100v-49q0 -66 5 -109.5t21.5 -80t42.5 -57t72 -34.5t105.5 -19t148.5 -5h39q119 0 185 10t108.5 43.5t56 87.5t13.5 150v30q0 52 -5 86t-21.5 63.5t-43 47t-74.5 32t-110.5 23t-155.5 15.5q-148 11 -238.5 33t-142.5 65t-70 99.5t-18 148.5v33q0 104 20 170 t71.5 109.5t135 61t216.5 17.5h34q102 0 173.5 -7.5t126.5 -26t88 -46t54 -73.5t28.5 -101t7.5 -135v-37h-105v33q0 98 -12 152t-53.5 90t-110 47.5t-190.5 11.5h-31q-114 0 -178 -10t-104.5 -41.5t-53 -80t-12.5 -134.5v-31q0 -55 8 -89.5t30.5 -64.5t67.5 -47.5t115 -30.5 t178 -22q155 -13 245 -33t145 -62.5t73 -101.5t18 -159v-31q0 -118 -20.5 -190.5t-75 -117.5t-140 -62t-224.5 -17h-46q-109 0 -183 6t-132 24t-91.5 44.5t-55 73t-28.5 103.5t-7 142z" />
<glyph unicode="T" horiz-adv-x="1073" d="M18 1303v90h1037v-90h-465v-1303h-107v1303h-465z" />
<glyph unicode="U" horiz-adv-x="1343" d="M139 442v951h107v-942q0 -87 6 -144t25.5 -100.5t45 -66.5t75.5 -37.5t105.5 -18.5t145.5 -4h41q68 0 113.5 2t90 9t72.5 18t53.5 31t39 46t24 65.5t14 87t3.5 112.5v942h104v-951q0 -101 -8.5 -170t-33.5 -122t-60 -83t-97.5 -48.5t-135.5 -24.5t-185 -6h-29 q-112 0 -185 6t-135 24.5t-96 48t-58.5 82.5t-33 122t-8.5 171z" />
<glyph unicode="V" horiz-adv-x="1198" d="M18 1393h111l473 -1305h6l463 1305h109l-506 -1393h-146z" />
<glyph unicode="W" horiz-adv-x="1875" d="M37 1393h108l359 -1307h4l362 1307h140l362 -1307h4l357 1307h106l-395 -1393h-146l-358 1296h-2l-360 -1296h-146z" />
<glyph unicode="X" horiz-adv-x="1241" d="M39 0l502 731l-453 662h123l410 -611l413 611h119l-455 -662l504 -731h-125l-456 678l-459 -678h-123z" />
<glyph unicode="Y" horiz-adv-x="1196" d="M18 1393h119l461 -787h4l457 787h119l-529 -889v-504h-104v504z" />
<glyph unicode="Z" horiz-adv-x="1183" d="M82 0v88l895 1219v2h-860v84h979v-93l-889 -1212v-2h897v-86h-1022z" />
<glyph unicode="[" horiz-adv-x="552" d="M147 -16v1425h304v-84h-207v-1257h207v-84h-304z" />
<glyph unicode="\" horiz-adv-x="892" d="M96 1409h84l539 -1425h-84z" />
<glyph unicode="]" horiz-adv-x="552" d="M102 -16v84h207v1257h-207v84h304v-1425h-304z" />
<glyph unicode="^" horiz-adv-x="1069" d="M100 618l389 775h89l391 -775h-92l-340 691h-2l-342 -691h-93z" />
<glyph unicode="_" horiz-adv-x="804" d="M0 -184h805v-62h-805v62z" />
<glyph unicode="`" horiz-adv-x="749" d="M199 1376l59 68l266 -264l-37 -39z" />
<glyph unicode="a" horiz-adv-x="999" d="M104 281v22q0 165 72 226t258 61h23q149 0 217 -20.5t98 -77.5h2v53q0 67 -1.5 111t-7 85.5t-12.5 65t-23.5 44.5t-34 30.5t-49 17t-64.5 9t-84 1.5h-21q-106 0 -158 -16t-72 -55.5t-20 -120.5v-21h-92v23q0 86 16.5 139t59.5 84t104.5 42t163.5 11h25q64 0 109 -3 t84.5 -13t64.5 -23.5t46 -40t32 -57t18.5 -80t9.5 -104t2 -133.5v-541h-94v113h-4q-32 -68 -101 -96.5t-202 -28.5h-20q-202 0 -273.5 60.5t-71.5 232.5zM201 285q0 -89 21.5 -132t78 -61t172.5 -18h19q164 0 224 41.5t60 167.5v16q0 56 -9 92t-27 60t-55.5 36t-84.5 16.5 t-123 4.5h-18q-82 0 -130.5 -8.5t-78 -33.5t-39.5 -63t-10 -104v-14z" />
<glyph unicode="b" horiz-adv-x="1067" d="M143 0v1393h99v-547h4q29 82 102 115.5t219 33.5h27q144 0 220 -39t111.5 -142t35.5 -300v-41q0 -148 -17.5 -240t-62.5 -148t-112.5 -76.5t-176.5 -20.5h-23q-150 0 -222 35t-103 122h-4v-145h-97zM240 428q0 -87 8.5 -145t28 -100t55.5 -64.5t86 -32.5t125 -10h26 q74 0 121.5 9.5t83 33t53.5 69.5t26.5 111.5t8.5 167.5v51q0 101 -8.5 166.5t-26.5 111.5t-53.5 69.5t-83 33.5t-121.5 10h-26q-62 0 -104.5 -5.5t-78.5 -20t-57.5 -39t-36.5 -64.5t-20.5 -93.5t-5.5 -129.5v-129z" />
<glyph unicode="c" horiz-adv-x="1011" d="M106 465v53q0 101 8.5 173.5t29 126.5t50 87.5t77 54t103 28t134.5 7.5h29q215 0 291.5 -67.5t76.5 -255.5v-23h-96v19q0 147 -54 194t-218 47h-27q-65 0 -108.5 -5.5t-79.5 -22t-57 -42.5t-35.5 -71.5t-19.5 -104.5t-5 -145v-53q0 -127 12 -200t49 -117t92 -58t152 -14 h27q167 0 222.5 49.5t55.5 198.5v22h96v-24q0 -193 -80.5 -263.5t-295.5 -70.5h-29q-122 0 -195 19t-121.5 74t-66 145t-17.5 239z" />
<glyph unicode="d" horiz-adv-x="1067" d="M106 473v41q0 148 19 241t65 147t112.5 73.5t172.5 19.5h27q144 0 217 -34.5t104 -114.5h2v547h99v-1393h-95v145h-4q-33 -85 -105.5 -121t-219.5 -36h-23q-111 0 -179.5 21.5t-113 78.5t-61.5 148t-17 237zM205 467q0 -100 9 -165.5t28 -111.5t54.5 -70t82.5 -34 t119 -10h24q96 0 151 13t91.5 53t49.5 106t13 180v129q0 110 -13 175t-48.5 106.5t-92 56t-151.5 14.5h-24q-61 0 -102.5 -5.5t-76 -22t-55 -43t-34.5 -71.5t-19.5 -104.5t-5.5 -144.5v-51z" />
<glyph unicode="e" horiz-adv-x="1013" d="M106 467v45q0 103 7 175.5t26 128t46 89t73.5 54.5t102.5 28.5t137 7.5h28q117 0 188 -17.5t114.5 -65.5t59 -121.5t15.5 -196.5v-105h-698v-32q0 -85 4.5 -142t18.5 -102t34 -70t56 -41.5t80 -22t110 -5.5h27q87 0 139 10t84 38.5t43.5 73t11.5 119.5v19h96v-21 q0 -186 -82.5 -255.5t-289.5 -69.5h-31q-84 0 -142.5 8t-105 29.5t-74.5 54.5t-46 88.5t-25 126t-7 172.5zM205 569h600v37q0 66 -4 109.5t-15.5 80t-30 56.5t-51.5 34t-75 18.5t-105 4.5h-22q-65 0 -107.5 -4.5t-77.5 -19t-54.5 -36.5t-33 -62t-18.5 -90.5t-6 -127.5z" />
<glyph unicode="f" horiz-adv-x="497" d="M43 905v78h127v94q0 185 52.5 255.5t195.5 70.5q62 0 117 -8v-80q-53 6 -97 6q-59 0 -92 -10t-51 -41t-22.5 -73t-4.5 -122v-92h230v-78h-230v-905h-98v905h-127z" />
<glyph unicode="g" horiz-adv-x="1060" d="M104 494v36q0 186 35.5 286t111 139.5t214.5 39.5h24q151 0 223.5 -34.5t106.5 -118.5h4v141h97v-915q0 -97 -6 -161t-25 -114.5t-45.5 -78t-76 -45.5t-107.5 -23.5t-148 -5.5h-33q-110 0 -176 12.5t-108.5 46.5t-58 89t-15.5 146v23h92v-20q0 -67 9 -104.5t39 -62.5 t80 -33.5t138 -8.5h33q76 0 121 3t83.5 17t56 33t30 60.5t15.5 89.5t3 130v138h-4q-32 -80 -103.5 -115t-224.5 -35h-24q-138 0 -214 39t-111.5 135t-35.5 271zM203 489q0 -110 13 -177t47 -107.5t85.5 -55t136.5 -14.5h27q100 0 158 14t94 55.5t47.5 106.5t11.5 178v48 q0 119 -12 188t-48.5 112.5t-93 57.5t-155.5 14h-27q-89 0 -141.5 -14.5t-86 -57.5t-45 -112.5t-11.5 -187.5v-48z" />
<glyph unicode="h" horiz-adv-x="1071" d="M143 0v1393h99v-568h2q17 42 39 71t59 52.5t94.5 35t136.5 11.5h21q107 0 170 -14.5t104 -57t55.5 -111.5t14.5 -185v-627h-98v586q0 73 -3.5 120.5t-15.5 85.5t-29.5 59t-50 35t-72 18.5t-100.5 4.5h-22q-83 0 -136.5 -13t-93.5 -48.5t-57.5 -99t-17.5 -162.5v-586h-99z " />
<glyph unicode="i" horiz-adv-x="385" d="M143 0v983h99v-983h-99zM143 1237v156h99v-156h-99z" />
<glyph unicode="j" horiz-adv-x="385" d="M12 -264q18 -2 43 -2q54 0 71 31t17 141v1077h99v-1079q0 -150 -36.5 -204t-131.5 -54q-22 0 -62 4v86zM143 1235v158h99v-158h-99z" />
<glyph unicode="k" horiz-adv-x="905" d="M143 0v1393h99v-832h59l416 422h125l-461 -455l512 -528h-131l-465 494h-55v-494h-99z" />
<glyph unicode="l" horiz-adv-x="385" d="M143 0v1393h99v-1393h-99z" />
<glyph unicode="m" horiz-adv-x="1665" d="M143 0v983h99v-158h2q56 170 303 170h20q106 0 169 -21t92 -60t42 -107h2q25 91 99 139.5t217 48.5h22q99 0 159 -15.5t97.5 -58.5t51.5 -110.5t14 -179.5v-631h-100v586q0 110 -9 170t-38 96.5t-73 46.5t-126 10h-21q-72 0 -119.5 -13t-85 -48t-54.5 -100.5t-17 -165.5 v-582h-98v586q0 109 -10 170.5t-40.5 97t-74.5 45.5t-125 10h-21q-73 0 -122 -14t-85.5 -49.5t-53.5 -99.5t-17 -160v-586h-99z" />
<glyph unicode="n" horiz-adv-x="1073" d="M143 0v983h99v-158h2q32 86 103.5 128t225.5 42h21q106 0 170 -15.5t105 -58.5t56 -111.5t15 -182.5v-627h-100v584q0 73 -3.5 120.5t-15.5 85.5t-29.5 59t-50 35t-72 18.5t-100.5 4.5h-22q-82 0 -135.5 -13t-93.5 -48.5t-58 -99t-18 -162.5v-584h-99z" />
<glyph unicode="o" d="M106 465v53q0 148 17.5 237t65.5 144.5t122.5 75.5t198.5 20h31q124 0 198.5 -20t122 -75.5t65 -144.5t17.5 -237v-53q0 -148 -17.5 -237t-65 -144.5t-122 -75.5t-198.5 -20h-31q-124 0 -198.5 20t-122.5 75.5t-65.5 144.5t-17.5 237zM205 465q0 -128 11.5 -200.5 t48 -117.5t92.5 -59t155 -14h27q99 0 155 14t92.5 59t48 117.5t11.5 200.5v53q0 128 -11.5 200.5t-48 117.5t-92.5 59t-155 14h-27q-99 0 -155 -14t-92.5 -59t-48 -117.5t-11.5 -200.5v-53z" />
<glyph unicode="p" horiz-adv-x="1067" d="M143 -348v1331h97v-141h4q29 84 101.5 118.5t223.5 34.5h25q144 0 220 -39t111.5 -142t35.5 -300v-41q0 -148 -17.5 -240t-62.5 -148t-112.5 -76.5t-176.5 -20.5h-25q-145 0 -217 33.5t-104 119.5h-4v-489h-99zM240 428q0 -109 13 -174.5t49 -106.5t92 -56t149 -15h26 q74 0 121.5 9.5t83 33t53.5 69.5t26.5 111.5t8.5 167.5v51q0 101 -8.5 166.5t-26.5 111.5t-53.5 69.5t-83 33.5t-121.5 10h-26q-94 0 -148.5 -13t-91.5 -52t-50 -106t-13 -181v-129z" />
<glyph unicode="q" horiz-adv-x="1069" d="M106 473v41q0 148 19 241t65 147t112.5 73.5t172.5 19.5h25q148 0 220 -35t105 -118h4v141h97v-1331h-101v489h-4q-31 -83 -103.5 -118t-215.5 -35h-25q-111 0 -179.5 21.5t-113 78.5t-61.5 148t-17 237zM205 467q0 -100 9 -165.5t28 -111.5t54.5 -70t82.5 -34t119 -10 h26q64 0 107.5 5.5t79 20.5t56.5 39t35.5 65t19.5 93.5t5 128.5v129q0 110 -12 174.5t-47 106.5t-91.5 56.5t-152.5 14.5h-26q-61 0 -102.5 -5.5t-76 -22t-55 -43t-34.5 -71.5t-19.5 -104.5t-5.5 -144.5v-51z" />
<glyph unicode="r" horiz-adv-x="868" d="M143 0v983h97v-168h4q28 94 94.5 137t191.5 43h17q88 0 141 -13.5t83.5 -49.5t41 -87.5t10.5 -137.5v-70h-92v49q0 72 -8 112.5t-33 66.5t-65 34t-111 8h-16q-63 0 -107 -14.5t-79.5 -51t-52.5 -105.5t-17 -173v-563h-99z" />
<glyph unicode="s" horiz-adv-x="987" d="M104 272v25h95v-18q0 -67 9 -103t40 -61t84.5 -33t148.5 -8h47q69 0 113 6t74.5 17.5t45.5 35t21 53.5t6 78v19q0 51 -9.5 79.5t-42.5 51.5t-93 34t-164 19q-144 10 -218.5 36t-104 74t-29.5 136v24q0 146 73.5 202t266.5 56h39q110 0 175.5 -11.5t107 -43.5t56.5 -84 t15 -139v-23h-94v19q0 84 -20 123.5t-73 56t-165 16.5h-37q-81 0 -128 -7.5t-74.5 -29t-36.5 -52t-9 -83.5v-24q0 -53 19.5 -83t82 -50.5t181.5 -28.5q155 -10 235 -36.5t113 -77.5t33 -146v-25q0 -161 -75 -219.5t-280 -58.5h-49q-121 0 -191.5 11.5t-114 45t-58.5 86 t-15 141.5z" />
<glyph unicode="t" horiz-adv-x="778" d="M25 905v78h139v256h98v-256h463v-78h-463v-532q0 -71 2 -116.5t10 -81t18.5 -53.5t32 -29t45.5 -14t64 -3h27q41 0 66 3t46.5 14.5t32 28.5t18 50.5t9.5 74t2 105.5v94h92v-108q0 -113 -11.5 -179.5t-44.5 -106t-82 -52t-134 -12.5h-31q-58 0 -95 5t-68.5 20.5t-48.5 40 t-28.5 69.5t-15.5 102t-4 144v536h-139z" />
<glyph unicode="u" horiz-adv-x="1064" d="M127 362v621h98v-577q0 -72 4.5 -121.5t16.5 -88.5t30.5 -61t50.5 -36.5t71.5 -19.5t97.5 -5h20q83 0 137 13t94.5 48t58 98.5t17.5 163.5v586h99v-983h-99v162h-2q-21 -57 -54.5 -93t-101.5 -58.5t-173 -22.5h-21q-104 0 -168 16.5t-104.5 61t-56 114t-15.5 182.5z" />
<glyph unicode="v" horiz-adv-x="909" d="M18 983h107l326 -907h6l331 907h103l-373 -983h-133z" />
<glyph unicode="w" horiz-adv-x="1423" d="M27 983h102l260 -905h6l256 905h123l256 -905h6l256 905h105l-297 -983h-135l-250 889h-6l-250 -889h-137z" />
<glyph unicode="x" horiz-adv-x="974" d="M55 0l361 504l-336 479h113l294 -428l295 428h113l-338 -479l363 -504h-117l-318 453l-317 -453h-113z" />
<glyph unicode="y" horiz-adv-x="894" d="M18 983h105l340 -897h4l303 897h107l-304 -872q-44 -126 -79 -207t-66.5 -134t-67.5 -79.5t-71 -35.5t-88 -9q-63 0 -92 2v84q20 -2 79 -2q45 0 74.5 9.5t60 39.5t58 86t61.5 149h-53z" />
<glyph unicode="z" horiz-adv-x="808" d="M55 0v84l590 817v4h-567v78h680v-82l-590 -819v-2h592v-80h-705z" />
<glyph unicode="{" horiz-adv-x="575" d="M76 672v61q32 0 55 10t37 27t22 44t10.5 55t2.5 67v229q0 146 41.5 195t156.5 49h72v-72h-49q-78 0 -102.5 -35t-24.5 -149v-211q0 -117 -26.5 -171.5t-108.5 -65.5v-5q82 -11 108.5 -65.5t26.5 -171.5v-223q0 -114 24.5 -149.5t102.5 -35.5h49v-71h-72q-78 0 -119 19.5 t-60 71.5t-19 152v242q0 39 -2.5 67t-10.5 55t-22 44t-37 27t-55 10z" />
<glyph unicode="|" horiz-adv-x="565" d="M242 -143v1679h82v-1679h-82z" />
<glyph unicode="}" horiz-adv-x="575" d="M102 -16v71h50q78 0 102.5 35.5t24.5 149.5v223q0 117 26.5 171.5t108.5 65.5v5q-82 11 -108.5 65.5t-26.5 171.5v211q0 114 -24.5 149t-102.5 35h-50v72h72q78 0 119 -19.5t60.5 -72t19.5 -152.5v-229q0 -39 2.5 -67t10.5 -55t22 -44t37 -27t55 -10v-61q-32 0 -55 -10 t-37 -27t-22 -44t-10.5 -55t-2.5 -67v-242q0 -100 -19.5 -152t-60.5 -71.5t-119 -19.5h-72z" />
<glyph unicode="~" d="M129 547q41 96 92.5 139t124.5 43q51 0 93 -18t93 -52q35 -22 56 -34t52.5 -22.5t61.5 -10.5q56 0 90.5 32.5t67.5 104.5l62 -33q-40 -95 -92 -138.5t-128 -43.5q-79 0 -188 72q-51 33 -88 49t-78 16q-54 0 -89 -32.5t-66 -102.5z" />
<glyph unicode="&#xa1;" horiz-adv-x="436" d="M164 809v174h108v-174h-108zM168 -410l4 1057h92l4 -1057h-100z" />
<glyph unicode="&#xa2;" horiz-adv-x="1089" d="M129 647v49q0 101 6.5 171.5t24.5 126t45 88.5t72.5 55t102.5 30t140 9v217h64v-217q114 -1 184 -15t114 -51.5t60 -96t16 -153.5v-31h-92v27q0 72 -10 113.5t-41.5 70.5t-85 39t-145.5 11v-834q122 0 183.5 24t83 74.5t21.5 149.5v22h91v-28q0 -186 -80.5 -257.5 t-298.5 -72.5v-250h-64v250q-83 1 -141 9.5t-103.5 31t-72 55t-44 88.5t-24 125t-6.5 170zM225 645q0 -86 4 -143t17 -103t32.5 -71.5t54.5 -42.5t78 -22.5t109 -6.5v834q-67 -1 -111 -6.5t-79 -23t-54 -43t-31 -72.5t-16 -103t-4 -144v-53z" />
<glyph unicode="&#xa3;" horiz-adv-x="1249" d="M113 618v80h170v50q0 113 3 194.5t12.5 151.5t23 116t37.5 83t52.5 57t72.5 33.5t92.5 17.5t117.5 4h35q77 0 130.5 -5.5t98 -21t71 -40.5t45 -66.5t25.5 -96t7 -131.5v-28h-96v28q0 90 -10.5 140.5t-43.5 82.5t-85 42t-144 10h-29q-57 0 -94 -2.5t-72.5 -13.5t-56 -26 t-39.5 -47t-27.5 -69.5t-15.5 -101t-8.5 -133.5t-1.5 -174v-54h475v-80h-475q-1 -154 -9.5 -248t-28 -149.5t-43 -80.5t-66.5 -46v-4h903v-90h-1010v96q49 19 76 44t46 83t25 148t7 247h-170z" />
<glyph unicode="&#xa4;" horiz-adv-x="1181" d="M141 268l162 158q-78 93 -78 238q0 136 74 229l-158 158l54 51l155 -156q100 84 244 84q146 0 240 -82l153 154l51 -51l-151 -152q78 -97 78 -235q0 -141 -82 -242l155 -156l-51 -51l-158 156q-97 -78 -235 -78t-240 82l-159 -160q-9 8 -54 53zM307 664q0 -127 79.5 -211 t207.5 -84t207.5 84t79.5 211q0 126 -79 208t-208 82t-208 -82t-79 -208z" />
<glyph unicode="&#xa5;" horiz-adv-x="1249" d="M84 1393h113l428 -787h2l426 787h112l-323 -564h256v-65h-291l-129 -232v-16h420v-65h-422v-451h-103v451h-421v65h417v16l-127 232h-290v65h254z" />
<glyph unicode="&#xa6;" horiz-adv-x="565" d="M242 -143v673h82v-673h-82zM242 874v662h82v-662h-82z" />
<glyph unicode="&#xa7;" horiz-adv-x="1241" d="M129 -20h100v-29q0 -56 4 -91t19.5 -65.5t39 -46t68 -27t101.5 -15t145 -3.5h33q100 0 162 6t105.5 19t63.5 40.5t28 62t8 93.5v29q0 69 -11.5 108t-50 67t-107 38t-186.5 10h-65q-109 0 -184 11t-125 33t-77.5 62t-38.5 90t-11 124v30q0 137 48 197.5t175 79.5v2 q-132 14 -177.5 73.5t-45.5 188.5v27q0 97 18 154t70 94t136 50t226 13h39q105 0 174.5 -5t125 -21t86.5 -39t51.5 -64.5t27 -92.5t6.5 -128v-35h-98v29q0 63 -5 103.5t-22.5 72t-40.5 48t-69 26.5t-98 13t-138 3h-29q-96 0 -155 -5.5t-102.5 -18.5t-64 -40t-29.5 -63.5 t-9 -95.5v-27q0 -50 6.5 -80.5t26 -58t58 -41.5t100 -21.5t153.5 -7.5h59q143 0 229.5 -14.5t137.5 -53.5t68.5 -96.5t17.5 -154.5v-27q0 -144 -45.5 -208t-171.5 -77v-2q127 -18 172 -79.5t45 -196.5v-29q0 -94 -17.5 -149.5t-69.5 -92.5t-139 -50t-233 -13h-43 q-91 0 -156 4.5t-118 13.5t-86.5 27.5t-57 42t-35.5 61t-17 80t-5 103.5v35zM250 504q0 -59 7 -95.5t26.5 -67.5t58.5 -46.5t99.5 -24t152.5 -8.5h45q85 0 140.5 3.5t99 14.5t66.5 26t38 44.5t19 63.5t4 88v24q0 51 -4.5 83.5t-18.5 62t-38 46t-65 29t-97.5 17t-137.5 4.5 h-29q-98 0 -161 -7.5t-105 -22t-63 -44.5t-29 -66.5t-8 -95.5v-28z" />
<glyph unicode="&#xa8;" horiz-adv-x="749" d="M180 1237v156h99v-156h-99zM477 1237v156h98v-156h-98z" />
<glyph unicode="&#xa9;" horiz-adv-x="1656" d="M139 676v41q0 119 5 205t20 159.5t36 121.5t60 86.5t84 59t117 34.5t150 18t190 4h57q112 0 190 -4t150 -18t117 -34.5t84 -59t60 -86.5t36 -121.5t20 -159.5t5 -205v-41q0 -119 -5 -205t-20 -159.5t-36 -121.5t-60 -86.5t-84 -59t-117 -34.5t-150 -18t-190 -4h-57 q-112 0 -190 4t-150 18t-117 34.5t-84 59t-60 86.5t-36 121.5t-20 159.5t-5 205zM201 684q0 -115 3.5 -194t16.5 -149.5t30.5 -114t53 -79.5t75 -54t106.5 -30.5t138 -16t177 -3.5h57q106 0 176.5 3.5t137 16t106.5 30.5t75 54t52.5 79.5t30.5 114t16.5 149.5t3.5 194v25 q0 115 -3.5 194t-16.5 149.5t-30.5 114t-52.5 79.5t-75 54t-106.5 30.5t-137 16t-176.5 3.5h-57q-106 0 -177 -3.5t-138 -16t-106.5 -30.5t-75 -54t-53 -79.5t-30.5 -114t-16.5 -149.5t-3.5 -194v-25zM502 682v43q0 83 5.5 141t20.5 103.5t37.5 72t60.5 44t85 24t116 6.5h27 q176 0 238.5 -55t62.5 -207v-29h-84v25q0 116 -43.5 153t-175.5 37h-25q-52 0 -86 -4.5t-62 -17.5t-43.5 -33.5t-26 -58t-14 -84t-3.5 -117.5v-43q0 -73 3 -120.5t14 -86t26 -58.5t44.5 -33.5t64.5 -17.5t90 -4h24q127 0 172 43.5t45 159.5v23h84v-29q0 -151 -66 -211.5 t-233 -60.5h-26q-107 0 -168 14.5t-100 60.5t-51.5 119t-12.5 201z" />
<glyph unicode="&#xaa;" horiz-adv-x="712" d="M102 948v17q0 102 47 139t162 37h25q90 0 130 -16t62 -52h2v43q0 79 -4.5 118.5t-23.5 65t-47.5 31.5t-85.5 6h-21q-97 0 -129.5 -22.5t-32.5 -89.5v-17h-67v19q0 97 50.5 131.5t180.5 34.5h23q76 0 116.5 -9t67.5 -41t35 -83.5t8 -145.5v-338h-70v72h-2q-25 -42 -65 -60 t-125 -18h-23q-127 0 -170 36t-43 142zM170 950q0 -75 31.5 -99t130.5 -24h20q104 0 141 25.5t37 101.5v9q0 77 -35.5 99.5t-146.5 22.5h-22q-94 0 -125 -23.5t-31 -98.5v-13z" />
<glyph unicode="&#xab;" horiz-adv-x="757" d="M90 555l225 412l70 -33l-207 -379l207 -377l-70 -33zM373 555l223 412l72 -33l-209 -379l209 -377l-72 -33z" />
<glyph unicode="&#xac;" d="M123 754v80h805v-455h-86v375h-719z" />
<glyph unicode="&#xad;" horiz-adv-x="731" d="M121 471v90h489v-90h-489z" />
<glyph unicode="&#xae;" horiz-adv-x="1118" d="M121 961v20q0 94 7 157.5t28 111.5t49 75t79 43.5t109.5 21.5t149.5 5h32q91 0 149.5 -5t109.5 -21.5t79 -43.5t49 -75t28 -111.5t7 -157.5v-20q0 -93 -7 -156.5t-27.5 -112t-49 -75.5t-79.5 -44t-110 -22.5t-149 -5.5h-32q-90 0 -149 5.5t-110 22.5t-79.5 44t-49 75.5 t-27.5 112t-7 156.5zM178 961q0 -85 4.5 -139.5t20.5 -98.5t39 -67t67 -38t97 -19.5t137 -4.5h32q84 0 136.5 4.5t96.5 19.5t67 38t39 67t21 98.5t5 139.5v20q0 85 -4.5 140t-21 98.5t-39 66t-67.5 37.5t-97 19t-136 4h-32q-85 0 -137 -4t-97 -19t-67.5 -37.5t-38.5 -66.5 t-20.5 -98t-4.5 -140v-20zM377 717v506h235q83 0 115.5 -28.5t32.5 -115.5v-18q0 -91 -72 -113v-2q40 -8 56 -35t16 -96v-98h-62v69q0 89 -20.5 111.5t-102.5 22.5h-137v-203h-61zM438 969h164q52 0 74 20.5t22 67.5v16q0 63 -20 83t-86 20h-154v-207z" />
<glyph unicode="&#xaf;" horiz-adv-x="749" d="M182 1268v75h400v-75h-400z" />
<glyph unicode="&#xb0;" horiz-adv-x="681" d="M90 1180q0 107 71 177t179 70q109 0 180.5 -70t71.5 -177q0 -109 -71.5 -179.5t-180.5 -70.5q-108 0 -179 71t-71 179zM158 1178q0 -79 52 -132t130 -53q81 0 132.5 52.5t51.5 132.5t-51.5 133t-132.5 53q-78 0 -130 -53t-52 -133z" />
<glyph unicode="&#xb1;" d="M123 57v82h805v-82h-805zM123 651v80h358v352h86v-352h361v-80h-361v-350h-86v350h-358z" />
<glyph unicode="&#xb2;" horiz-adv-x="755" d="M86 928v94q0 54 4 89.5t17 64.5t31.5 46t54.5 31.5t78.5 22.5t109.5 16q77 9 119.5 19.5t67 31t31.5 47t7 74.5v23q0 62 -15.5 90.5t-59.5 40.5t-138 12h-16q-89 0 -131 -13t-57 -43.5t-15 -96.5v-35h-74v35q0 89 23 134.5t81 65t173 19.5h16q121 0 182 -19t84 -62 t23 -128v-21q0 -83 -22.5 -127.5t-83 -69.5t-181.5 -40q-59 -7 -93 -12.5t-63.5 -16t-42 -21.5t-22 -34.5t-11 -48t-1.5 -68.5v-37h524v-63h-600z" />
<glyph unicode="&#xb3;" horiz-adv-x="768" d="M80 1151v27h74v-27q0 -58 6.5 -87.5t32.5 -48.5t65.5 -23.5t116.5 -4.5h20q62 0 99 3.5t63.5 11.5t38 26t16 40.5t4.5 61.5v21q0 81 -31.5 111t-119.5 30h-170v60h170q80 0 107.5 26.5t27.5 98.5v20q0 59 -16.5 86t-57.5 37t-131 10h-16q-58 0 -90.5 -3t-59 -10.5 t-37.5 -25t-16.5 -42.5t-5.5 -68v-39h-72v39q0 69 11 108.5t43.5 64.5t84.5 33.5t142 8.5h18q115 0 174.5 -18t83 -58.5t23.5 -118.5v-20q0 -73 -21.5 -108.5t-72.5 -49.5v-2q55 -10 82.5 -47.5t27.5 -124.5v-23q0 -123 -59 -163.5t-238 -40.5h-22q-79 0 -126.5 5.5 t-83.5 18.5t-53 40.5t-24.5 65.5t-7.5 99z" />
<glyph unicode="&#xb4;" horiz-adv-x="749" d="M248 1178l266 264l59 -68l-288 -235z" />
<glyph unicode="&#xb5;" horiz-adv-x="1087" d="M143 -375v1358h99v-584q0 -101 14.5 -164t50.5 -99t86.5 -49t132.5 -13h21q82 0 135 13.5t91.5 49t55.5 98t17 160.5v588h98v-983h-98v170h-2q-28 -92 -96.5 -136t-210.5 -44h-21q-123 0 -183 31.5t-87 101.5h-4v-498h-99z" />
<glyph unicode="&#xb6;" horiz-adv-x="1064" d="M123 963v38q0 86 7 143.5t28 103.5t53 72t88.5 43.5t127.5 23.5t177 6h314v-1729h-80v1661h-140v-1661h-80v905h-86q-104 0 -173.5 12.5t-117 38t-72.5 74t-35.5 111t-10.5 158.5z" />
<glyph unicode="&#xb7;" horiz-adv-x="362" d="M127 459v174h109v-174h-109z" />
<glyph unicode="&#xb8;" horiz-adv-x="628" d="M115 -293l241 279l66 -60l-264 -256z" />
<glyph unicode="&#xb9;" horiz-adv-x="528" d="M31 1434l221 256h94v-762h-76v676h-2l-188 -218z" />
<glyph unicode="&#xba;" horiz-adv-x="722" d="M92 1065v35q0 95 10.5 149.5t40.5 88t77 44.5t128 11h27q81 0 128 -11t77 -44.5t40.5 -88t10.5 -149.5v-35q0 -76 -7 -125t-23 -84t-47 -53t-72.5 -25.5t-106.5 -7.5h-27q-65 0 -106.5 7.5t-72.5 25.5t-47 53t-23 84t-7 125zM162 1065q0 -53 2.5 -87.5t11 -62.5 t20.5 -43.5t34.5 -25.5t50 -13.5t69.5 -3.5h23q64 0 98.5 8t56 35.5t27.5 70t6 122.5v35q0 79 -6 121t-27.5 69.5t-56 35t-98.5 7.5h-23q-64 0 -98.5 -7.5t-56 -35t-27.5 -69.5t-6 -121v-35z" />
<glyph unicode="&#xbb;" horiz-adv-x="757" d="M90 178l209 377l-209 379l70 33l225 -412l-225 -410zM373 178l207 377l-207 379l69 33l226 -412l-226 -410z" />
<glyph unicode="&#xbc;" horiz-adv-x="1531" d="M119 1137l221 256h94v-762h-76v676h-2l-188 -217zM410 0l526 1393h72l-525 -1393h-73zM784 176v78l441 508h108v-524h97v-62h-97v-176h-76v176h-473zM862 238h395v460h-2l-393 -458v-2z" />
<glyph unicode="&#xbd;" horiz-adv-x="1615" d="M119 1137l221 256h94v-762h-76v676h-2l-188 -217zM410 0l526 1393h72l-525 -1393h-73zM897 0v94q0 54 4 89.5t17 65t31.5 46.5t54.5 31t78.5 22.5t109.5 16.5q77 9 119.5 19.5t67 31t31.5 47t7 74.5v22q0 62 -15.5 90.5t-59.5 40.5t-138 12h-16q-89 0 -131 -13t-57 -43.5 t-15 -96.5v-35h-74v35q0 89 23 134.5t81 65t173 19.5h16q121 0 182 -19t84 -62t23 -128v-20q0 -83 -22.5 -127.5t-83 -70t-181.5 -40.5q-59 -7 -93 -12.5t-63.5 -16t-42 -21.5t-22 -34.5t-11 -48t-1.5 -68.5v-37h524v-63h-600z" />
<glyph unicode="&#xbe;" horiz-adv-x="1781" d="M135 854v27h74v-27q0 -58 6.5 -87.5t32.5 -48.5t65.5 -23.5t116.5 -4.5h21q51 0 85 2t60 8.5t39.5 15.5t22.5 27t11.5 38t2.5 53v20q0 80 -32 110.5t-120 30.5h-170v60h170q80 0 107.5 26.5t27.5 98.5v20q0 85 -37.5 109t-166.5 24h-17q-58 0 -90.5 -3t-59 -10.5 t-37.5 -25t-16.5 -42.5t-5.5 -68v-39h-71v39q0 69 10.5 108.5t43 64.5t84.5 33.5t142 8.5h19q115 0 174.5 -18t82.5 -58.5t23 -118.5v-20q0 -73 -21.5 -108.5t-72.5 -49.5v-2q56 -10 83.5 -47.5t27.5 -124.5v-23q0 -123 -59 -163.5t-238 -40.5h-23q-79 0 -126.5 5.5 t-83.5 18.5t-53 40.5t-24.5 65.5t-7.5 99zM659 0l525 1393h73l-524 -1393h-74zM1034 176v78l441 508h108v-524h96v-62h-96v-176h-76v176h-473zM1112 238h395v460h-2l-393 -458v-2z" />
<glyph unicode="&#xbf;" horiz-adv-x="1071" d="M96 -20q0 81 7.5 136.5t26.5 100.5t53.5 74t84.5 49.5t125 36.5q99 22 129.5 53.5t30.5 110.5v34h94v-36q0 -111 -40 -160t-158 -76q-60 -14 -96.5 -25t-68 -29t-46.5 -37.5t-26 -54t-14 -74t-3 -101.5v-31q0 -63 4 -104t17 -75t34 -53t57.5 -32.5t83.5 -18t117 -4.5h31 q78 0 127.5 4t90 17.5t62 33.5t36 58.5t18.5 85t4 119.5v51h94v-56q0 -87 -7 -147t-27 -106.5t-49.5 -73t-80.5 -43.5t-113 -23t-155 -6h-31q-88 0 -151 8t-109.5 27t-75.5 45.5t-46 70t-23.5 94t-6.5 122.5v35zM545 809v174h108v-174h-108z" />
<glyph unicode="&#xc0;" horiz-adv-x="1232" d="M23 0l522 1393h157l508 -1393h-110l-119 330h-727l-123 -330h-108zM281 414h673l-323 899h-15zM326 1686l45 73l315 -198l-29 -45z" />
<glyph unicode="&#xc1;" horiz-adv-x="1232" d="M23 0l522 1393h157l508 -1393h-110l-119 330h-727l-123 -330h-108zM281 414h673l-323 899h-15zM559 1563l315 198l46 -73l-332 -170z" />
<glyph unicode="&#xc2;" horiz-adv-x="1232" d="M23 0l522 1393h157l508 -1393h-110l-119 330h-727l-123 -330h-108zM281 414h673l-323 899h-15zM379 1573l246 201l247 -201l-41 -45l-206 153l-205 -153z" />
<glyph unicode="&#xc3;" horiz-adv-x="1232" d="M23 0l522 1393h157l508 -1393h-110l-119 330h-727l-123 -330h-108zM281 414h673l-323 899h-15zM383 1565q15 161 133 161q50 0 119 -49q38 -27 58.5 -38t41.5 -11q35 0 54 23.5t26 77.5l55 -11q-18 -164 -133 -164q-33 0 -60 13.5t-65 42.5q-58 43 -94 43 q-33 0 -53 -22.5t-29 -78.5z" />
<glyph unicode="&#xc4;" horiz-adv-x="1232" d="M23 0l522 1393h157l508 -1393h-110l-119 330h-727l-123 -330h-108zM281 414h673l-323 899h-15zM430 1552v156h98v-156h-98zM729 1552v156h98v-156h-98z" />
<glyph unicode="&#xc5;" horiz-adv-x="1232" d="M23 0l522 1393h157l508 -1393h-110l-119 330h-727l-123 -330h-108zM281 414h673l-323 899h-15zM426 1628v12q0 79 42.5 112.5t147.5 33.5h13q104 0 146 -33.5t42 -112.5v-12q0 -79 -41.5 -112t-146.5 -33h-13q-105 0 -147.5 33t-42.5 112zM485 1628q0 -54 28.5 -75 t102.5 -21h13q72 0 100.5 21t28.5 75v12q0 54 -28.5 74.5t-100.5 20.5h-13q-74 0 -102.5 -20.5t-28.5 -74.5v-12z" />
<glyph unicode="&#xc6;" horiz-adv-x="1910" d="M12 0l779 1393h1034v-90h-760v-535h721v-88h-721v-590h764v-90h-866v328h-652l-186 -328h-113zM354 414h609v891h-105z" />
<glyph unicode="&#xc7;" horiz-adv-x="1312" d="M117 653v88q0 109 4.5 189.5t17 150t31 116.5t50 85t70 60.5t94.5 37t120 20t151 5.5h37q103 0 177 -7.5t131 -25.5t92.5 -45.5t58 -72t31 -99t8.5 -131.5v-35h-100v29q0 62 -6.5 105t-24.5 77t-45.5 55t-73.5 34.5t-105 18.5t-143 5h-35q-99 0 -160 -6.5t-114.5 -29 t-81 -58t-48 -103t-26.5 -154.5t-6 -221v-88q0 -98 3.5 -168.5t14 -131.5t24.5 -101.5t40.5 -72.5t57 -50t78 -29.5t99.5 -15.5t126 -4h34q102 0 168.5 8.5t114 27.5t72 55t35 85t10.5 125v25h102v-33q0 -93 -15 -156.5t-48 -109.5t-93 -71t-142.5 -36.5t-203.5 -11.5h-36 q-89 0 -153.5 5t-122 19.5t-96 36t-70.5 59.5t-50.5 85t-31 117t-17 151.5t-4.5 191.5zM473 -293l242 279l65 -60l-264 -256z" />
<glyph unicode="&#xc8;" horiz-adv-x="1101" d="M152 0v1393h864v-90h-760v-535h721v-88h-721v-590h764v-90h-868zM393 1686l45 73l316 -198l-29 -45z" />
<glyph unicode="&#xc9;" horiz-adv-x="1101" d="M152 0v1393h864v-90h-760v-535h721v-88h-721v-590h764v-90h-868zM414 1563l315 198l45 -73l-332 -170z" />
<glyph unicode="&#xca;" horiz-adv-x="1101" d="M152 0v1393h864v-90h-760v-535h721v-88h-721v-590h764v-90h-868zM340 1573l246 201l248 -201l-41 -45l-207 153l-205 -153z" />
<glyph unicode="&#xcb;" horiz-adv-x="1101" d="M152 0v1393h864v-90h-760v-535h721v-88h-721v-590h764v-90h-868zM383 1552v156h98v-156h-98zM682 1552v156h98v-156h-98z" />
<glyph unicode="&#xcc;" horiz-adv-x="407" d="M-102 1686l45 73l315 -198l-29 -45zM152 0v1393h104v-1393h-104z" />
<glyph unicode="&#xcd;" horiz-adv-x="407" d="M152 0v1393h104v-1393h-104zM156 1563l315 198l45 -73l-332 -170z" />
<glyph unicode="&#xce;" horiz-adv-x="407" d="M-43 1573l246 201l248 -201l-41 -45l-207 153l-205 -153zM152 0v1393h104v-1393h-104z" />
<glyph unicode="&#xcf;" horiz-adv-x="407" d="M4 1552v156h98v-156h-98zM152 0v1393h104v-1393h-104zM303 1552v156h98v-156h-98z" />
<glyph unicode="&#xd0;" horiz-adv-x="1384" d="M41 688v72h111v633h540q95 0 162 -4t128 -17.5t100.5 -33.5t73 -56.5t52 -82t32 -115t18 -150.5t4.5 -193v-90q0 -111 -4 -190t-17 -148.5t-31 -115t-51 -82.5t-72.5 -57.5t-100.5 -34.5t-129.5 -18.5t-164.5 -4.5h-540v688h-111zM256 90h434q83 0 138 3t107 13.5 t82.5 26.5t58.5 47.5t41.5 69.5t23.5 99.5t13 131t3 170.5v92q0 100 -3.5 171t-14.5 131.5t-25 99t-42.5 69.5t-59 47t-82.5 26t-105.5 13t-134.5 3h-434v-543h371v-72h-371v-598z" />
<glyph unicode="&#xd1;" horiz-adv-x="1411" d="M152 0v1393h170l829 -1301h6v1301h103v-1393h-170l-830 1303h-6v-1303h-102zM477 1565q15 161 133 161q50 0 119 -49q38 -27 58.5 -38t41.5 -11q35 0 54 23.5t26 77.5l56 -11q-18 -164 -134 -164q-23 0 -46 8.5t-37.5 18t-40.5 29.5q-58 43 -95 43q-33 0 -53 -22.5 t-29 -78.5z" />
<glyph unicode="&#xd2;" horiz-adv-x="1368" d="M117 649v92q0 146 9 245.5t34.5 176.5t63 121.5t102.5 73t144 38t196 9.5h36q117 0 196 -9.5t144 -38t102.5 -73t63 -121.5t34.5 -176.5t9 -245.5v-92q0 -108 -5 -189.5t-18.5 -150t-32.5 -116t-51.5 -85t-71.5 -59.5t-96.5 -36.5t-121.5 -19.5t-152 -5h-36q-88 0 -152 5 t-121.5 19.5t-96.5 36.5t-71.5 59.5t-51.5 85t-32.5 116t-18.5 150t-5 189.5zM223 649q0 -97 3.5 -167.5t13.5 -131t24.5 -100.5t40.5 -72t56.5 -49.5t78 -29.5t100 -15.5t126.5 -3.5h36q74 0 126.5 3.5t100 15.5t78 29.5t56.5 49.5t40.5 72t24.5 100.5t13.5 131t3.5 167.5 v94q0 97 -3.5 167.5t-13.5 131.5t-24.5 100.5t-40.5 72t-56.5 50t-78 29t-100 15.5t-126.5 4h-36q-74 0 -126.5 -4t-100 -15.5t-78 -29t-56.5 -50t-40.5 -72t-24.5 -100.5t-13.5 -131.5t-3.5 -167.5v-94zM500 1686l45 73l315 -198l-29 -45z" />
<glyph unicode="&#xd3;" horiz-adv-x="1368" d="M117 649v92q0 146 9 245.5t34.5 176.5t63 121.5t102.5 73t144 38t196 9.5h36q117 0 196 -9.5t144 -38t102.5 -73t63 -121.5t34.5 -176.5t9 -245.5v-92q0 -108 -5 -189.5t-18.5 -150t-32.5 -116t-51.5 -85t-71.5 -59.5t-96.5 -36.5t-121.5 -19.5t-152 -5h-36q-88 0 -152 5 t-121.5 19.5t-96.5 36.5t-71.5 59.5t-51.5 85t-32.5 116t-18.5 150t-5 189.5zM223 649q0 -97 3.5 -167.5t13.5 -131t24.5 -100.5t40.5 -72t56.5 -49.5t78 -29.5t100 -15.5t126.5 -3.5h36q74 0 126.5 3.5t100 15.5t78 29.5t56.5 49.5t40.5 72t24.5 100.5t13.5 131t3.5 167.5 v94q0 97 -3.5 167.5t-13.5 131.5t-24.5 100.5t-40.5 72t-56.5 50t-78 29t-100 15.5t-126.5 4h-36q-74 0 -126.5 -4t-100 -15.5t-78 -29t-56.5 -50t-40.5 -72t-24.5 -100.5t-13.5 -131.5t-3.5 -167.5v-94zM510 1563l315 198l45 -73l-331 -170z" />
<glyph unicode="&#xd4;" horiz-adv-x="1368" d="M117 649v92q0 146 9 245.5t34.5 176.5t63 121.5t102.5 73t144 38t196 9.5h36q117 0 196 -9.5t144 -38t102.5 -73t63 -121.5t34.5 -176.5t9 -245.5v-92q0 -108 -5 -189.5t-18.5 -150t-32.5 -116t-51.5 -85t-71.5 -59.5t-96.5 -36.5t-121.5 -19.5t-152 -5h-36q-88 0 -152 5 t-121.5 19.5t-96.5 36.5t-71.5 59.5t-51.5 85t-32.5 116t-18.5 150t-5 189.5zM223 649q0 -97 3.5 -167.5t13.5 -131t24.5 -100.5t40.5 -72t56.5 -49.5t78 -29.5t100 -15.5t126.5 -3.5h36q74 0 126.5 3.5t100 15.5t78 29.5t56.5 49.5t40.5 72t24.5 100.5t13.5 131t3.5 167.5 v94q0 97 -3.5 167.5t-13.5 131.5t-24.5 100.5t-40.5 72t-56.5 50t-78 29t-100 15.5t-126.5 4h-36q-74 0 -126.5 -4t-100 -15.5t-78 -29t-56.5 -50t-40.5 -72t-24.5 -100.5t-13.5 -131.5t-3.5 -167.5v-94zM438 1573l246 201l248 -201l-41 -45l-207 153l-205 -153z" />
<glyph unicode="&#xd5;" horiz-adv-x="1368" d="M117 649v92q0 146 9 245.5t34.5 176.5t63 121.5t102.5 73t144 38t196 9.5h36q117 0 196 -9.5t144 -38t102.5 -73t63 -121.5t34.5 -176.5t9 -245.5v-92q0 -108 -5 -189.5t-18.5 -150t-32.5 -116t-51.5 -85t-71.5 -59.5t-96.5 -36.5t-121.5 -19.5t-152 -5h-36q-88 0 -152 5 t-121.5 19.5t-96.5 36.5t-71.5 59.5t-51.5 85t-32.5 116t-18.5 150t-5 189.5zM223 649q0 -97 3.5 -167.5t13.5 -131t24.5 -100.5t40.5 -72t56.5 -49.5t78 -29.5t100 -15.5t126.5 -3.5h36q74 0 126.5 3.5t100 15.5t78 29.5t56.5 49.5t40.5 72t24.5 100.5t13.5 131t3.5 167.5 v94q0 97 -3.5 167.5t-13.5 131.5t-24.5 100.5t-40.5 72t-56.5 50t-78 29t-100 15.5t-126.5 4h-36q-74 0 -126.5 -4t-100 -15.5t-78 -29t-56.5 -50t-40.5 -72t-24.5 -100.5t-13.5 -131.5t-3.5 -167.5v-94zM440 1565q15 161 133 161q50 0 119 -49q37 -27 58.5 -38t42.5 -11 q35 0 53 23.5t26 77.5l56 -11q-18 -164 -133 -164q-33 0 -60 13.5t-65 42.5q-58 43 -95 43q-33 0 -52.5 -22.5t-28.5 -78.5z" />
<glyph unicode="&#xd6;" horiz-adv-x="1368" d="M117 649v92q0 146 9 245.5t34.5 176.5t63 121.5t102.5 73t144 38t196 9.5h36q117 0 196 -9.5t144 -38t102.5 -73t63 -121.5t34.5 -176.5t9 -245.5v-92q0 -108 -5 -189.5t-18.5 -150t-32.5 -116t-51.5 -85t-71.5 -59.5t-96.5 -36.5t-121.5 -19.5t-152 -5h-36q-88 0 -152 5 t-121.5 19.5t-96.5 36.5t-71.5 59.5t-51.5 85t-32.5 116t-18.5 150t-5 189.5zM223 649q0 -97 3.5 -167.5t13.5 -131t24.5 -100.5t40.5 -72t56.5 -49.5t78 -29.5t100 -15.5t126.5 -3.5h36q74 0 126.5 3.5t100 15.5t78 29.5t56.5 49.5t40.5 72t24.5 100.5t13.5 131t3.5 167.5 v94q0 97 -3.5 167.5t-13.5 131.5t-24.5 100.5t-40.5 72t-56.5 50t-78 29t-100 15.5t-126.5 4h-36q-74 0 -126.5 -4t-100 -15.5t-78 -29t-56.5 -50t-40.5 -72t-24.5 -100.5t-13.5 -131.5t-3.5 -167.5v-94zM485 1552v156h99v-156h-99zM784 1552v156h99v-156h-99z" />
<glyph unicode="&#xd7;" d="M162 299l309 328l-301 317l57 53l299 -315l299 315l56 -53l-301 -317l309 -326l-58 -55l-305 321l-305 -321z" />
<glyph unicode="&#xd8;" horiz-adv-x="1368" d="M100 -10l107 139q-49 71 -69.5 194.5t-20.5 325.5v92q0 108 5 189.5t18.5 150.5t32.5 117t51.5 85.5t71.5 59.5t96.5 36.5t122 20t151.5 5.5h36q158 0 256 -20t158 -72l88 114l60 -43l-99 -129q48 -72 67 -193.5t19 -320.5v-92q0 -145 -9 -244t-34.5 -175.5t-63 -121 t-102.5 -73t-144 -38t-196 -9.5h-36q-154 0 -250 18.5t-156 67.5l-98 -129zM223 649q0 -319 53 -428l775 1006q-47 50 -128 68t-221 18h-36q-99 0 -163 -7t-117 -31t-82 -60.5t-48.5 -104t-26 -152.5t-6.5 -215v-94zM324 158q49 -45 127.5 -61.5t214.5 -16.5h36q99 0 163 7 t117.5 31t81.5 60t48 103.5t26.5 152.5t6.5 215v94q0 308 -51 420z" />
<glyph unicode="&#xd9;" horiz-adv-x="1343" d="M139 442v951h107v-942q0 -87 6 -144t25.5 -100.5t45 -66.5t75.5 -37.5t105.5 -18.5t145.5 -4h41q68 0 113.5 2t90 9t72.5 18t53.5 31t39 46t24 65.5t14 87t3.5 112.5v942h104v-951q0 -101 -8.5 -170t-33.5 -122t-60 -83t-97.5 -48.5t-135.5 -24.5t-185 -6h-29 q-112 0 -185 6t-135 24.5t-96 48t-58.5 82.5t-33 122t-8.5 171zM475 1686l45 73l316 -198l-29 -45z" />
<glyph unicode="&#xda;" horiz-adv-x="1343" d="M139 442v951h107v-942q0 -87 6 -144t25.5 -100.5t45 -66.5t75.5 -37.5t105.5 -18.5t145.5 -4h41q68 0 113.5 2t90 9t72.5 18t53.5 31t39 46t24 65.5t14 87t3.5 112.5v942h104v-951q0 -101 -8.5 -170t-33.5 -122t-60 -83t-97.5 -48.5t-135.5 -24.5t-185 -6h-29 q-112 0 -185 6t-135 24.5t-96 48t-58.5 82.5t-33 122t-8.5 171zM518 1563l316 198l45 -73l-332 -170z" />
<glyph unicode="&#xdb;" horiz-adv-x="1343" d="M139 442v951h107v-942q0 -87 6 -144t25.5 -100.5t45 -66.5t75.5 -37.5t105.5 -18.5t145.5 -4h41q68 0 113.5 2t90 9t72.5 18t53.5 31t39 46t24 65.5t14 87t3.5 112.5v942h104v-951q0 -101 -8.5 -170t-33.5 -122t-60 -83t-97.5 -48.5t-135.5 -24.5t-185 -6h-29 q-112 0 -185 6t-135 24.5t-96 48t-58.5 82.5t-33 122t-8.5 171zM426 1573l246 201l248 -201l-41 -45l-207 153l-205 -153z" />
<glyph unicode="&#xdc;" horiz-adv-x="1343" d="M139 442v951h107v-942q0 -87 6 -144t25.5 -100.5t45 -66.5t75.5 -37.5t105.5 -18.5t145.5 -4h41q68 0 113.5 2t90 9t72.5 18t53.5 31t39 46t24 65.5t14 87t3.5 112.5v942h104v-951q0 -101 -8.5 -170t-33.5 -122t-60 -83t-97.5 -48.5t-135.5 -24.5t-185 -6h-29 q-112 0 -185 6t-135 24.5t-96 48t-58.5 82.5t-33 122t-8.5 171zM473 1552v156h98v-156h-98zM772 1552v156h98v-156h-98z" />
<glyph unicode="&#xdd;" horiz-adv-x="1196" d="M18 1393h119l461 -787h4l457 787h119l-529 -889v-504h-104v504zM481 1563l316 198l45 -73l-332 -170z" />
<glyph unicode="&#xde;" horiz-adv-x="1236" d="M152 0v1393h104v-246h422q104 0 173.5 -5.5t126 -22.5t88.5 -42.5t53.5 -71.5t28.5 -103.5t7 -143.5v-43q0 -84 -8.5 -143t-31 -104t-55.5 -71.5t-89 -43.5t-124 -23t-167 -6h-424v-324h-104zM256 414h408q91 0 150 4t105 17.5t69.5 32t39 55.5t19.5 79t4 111v47 q0 70 -4 112.5t-20 79t-39.5 54.5t-70.5 31t-105 16.5t-150 3.5h-406v-643z" />
<glyph unicode="&#xdf;" horiz-adv-x="1120" d="M143 0v1010q0 99 13 167t39 113t73 69.5t106 34t148 9.5h47q196 0 274.5 -53.5t78.5 -180.5v-24q0 -96 -37 -141.5t-117 -57.5h2q58 -5 95.5 -18.5t67.5 -42t46.5 -78.5t24.5 -122.5t8 -178.5v-41q0 -123 -13 -206.5t-38 -137.5t-71 -83t-101 -39.5t-140 -10.5 q-176 0 -258 45l12 86q81 -47 240 -47q49 0 81.5 3.5t64 13t50 28.5t34.5 47t24 72t12 101t4 136v43q0 87 -4.5 145.5t-18 103t-31.5 69t-52.5 39.5t-74 19.5t-101.5 4.5h-139v76h108q93 0 142.5 19t65 52.5t15.5 94.5v22q0 95 -51.5 129.5t-206.5 34.5h-37 q-89 0 -140.5 -11.5t-86 -46.5t-47 -94.5t-12.5 -160.5v-1012h-99z" />
<glyph unicode="&#xe0;" horiz-adv-x="999" d="M104 281v22q0 165 72 226t258 61h23q149 0 217 -20.5t98 -77.5h2v53q0 67 -1.5 111t-7 85.5t-12.5 65t-23.5 44.5t-34 30.5t-49 17t-64.5 9t-84 1.5h-21q-106 0 -158 -16t-72 -55.5t-20 -120.5v-21h-92v23q0 86 16.5 139t59.5 84t104.5 42t163.5 11h25q64 0 109 -3 t84.5 -13t64.5 -23.5t46 -40t32 -57t18.5 -80t9.5 -104t2 -133.5v-541h-94v113h-4q-32 -68 -101 -96.5t-202 -28.5h-20q-202 0 -273.5 60.5t-71.5 232.5zM201 285q0 -89 21.5 -132t78 -61t172.5 -18h19q164 0 224 41.5t60 167.5v16q0 56 -9 92t-27 60t-55.5 36t-84.5 16.5 t-123 4.5h-18q-82 0 -130.5 -8.5t-78 -33.5t-39.5 -63t-10 -104v-14zM336 1376l59 68l267 -264l-37 -39z" />
<glyph unicode="&#xe1;" horiz-adv-x="999" d="M104 281v22q0 165 72 226t258 61h23q149 0 217 -20.5t98 -77.5h2v53q0 67 -1.5 111t-7 85.5t-12.5 65t-23.5 44.5t-34 30.5t-49 17t-64.5 9t-84 1.5h-21q-106 0 -158 -16t-72 -55.5t-20 -120.5v-21h-92v23q0 86 16.5 139t59.5 84t104.5 42t163.5 11h25q64 0 109 -3 t84.5 -13t64.5 -23.5t46 -40t32 -57t18.5 -80t9.5 -104t2 -133.5v-541h-94v113h-4q-32 -68 -101 -96.5t-202 -28.5h-20q-202 0 -273.5 60.5t-71.5 232.5zM201 285q0 -89 21.5 -132t78 -61t172.5 -18h19q164 0 224 41.5t60 167.5v16q0 56 -9 92t-27 60t-55.5 36t-84.5 16.5 t-123 4.5h-18q-82 0 -130.5 -8.5t-78 -33.5t-39.5 -63t-10 -104v-14zM344 1178l266 264l60 -68l-289 -235z" />
<glyph unicode="&#xe2;" horiz-adv-x="999" d="M104 281v22q0 165 72 226t258 61h23q149 0 217 -20.5t98 -77.5h2v53q0 67 -1.5 111t-7 85.5t-12.5 65t-23.5 44.5t-34 30.5t-49 17t-64.5 9t-84 1.5h-21q-106 0 -158 -16t-72 -55.5t-20 -120.5v-21h-92v23q0 86 16.5 139t59.5 84t104.5 42t163.5 11h25q64 0 109 -3 t84.5 -13t64.5 -23.5t46 -40t32 -57t18.5 -80t9.5 -104t2 -133.5v-541h-94v113h-4q-32 -68 -101 -96.5t-202 -28.5h-20q-202 0 -273.5 60.5t-71.5 232.5zM201 285q0 -89 21.5 -132t78 -61t172.5 -18h19q164 0 224 41.5t60 167.5v16q0 56 -9 92t-27 60t-55.5 36t-84.5 16.5 t-123 4.5h-18q-82 0 -130.5 -8.5t-78 -33.5t-39.5 -63t-10 -104v-14zM262 1206l238 236l239 -236l-43 -45l-196 182l-195 -182z" />
<glyph unicode="&#xe3;" horiz-adv-x="999" d="M104 281v22q0 165 72 226t258 61h23q149 0 217 -20.5t98 -77.5h2v53q0 67 -1.5 111t-7 85.5t-12.5 65t-23.5 44.5t-34 30.5t-49 17t-64.5 9t-84 1.5h-21q-106 0 -158 -16t-72 -55.5t-20 -120.5v-21h-92v23q0 86 16.5 139t59.5 84t104.5 42t163.5 11h25q64 0 109 -3 t84.5 -13t64.5 -23.5t46 -40t32 -57t18.5 -80t9.5 -104t2 -133.5v-541h-94v113h-4q-32 -68 -101 -96.5t-202 -28.5h-20q-202 0 -273.5 60.5t-71.5 232.5zM201 285q0 -89 21.5 -132t78 -61t172.5 -18h19q164 0 224 41.5t60 167.5v16q0 56 -9 92t-27 60t-55.5 36t-84.5 16.5 t-123 4.5h-18q-82 0 -130.5 -8.5t-78 -33.5t-39.5 -63t-10 -104v-14zM252 1227q15 162 133 162q31 0 56.5 -12t62.5 -38q38 -27 58.5 -38t41.5 -11q35 0 54 23.5t26 77.5l55 -11q-18 -163 -133 -163q-33 0 -60.5 13.5t-64.5 41.5q-58 43 -94 43q-33 0 -53 -22.5t-29 -78.5z " />
<glyph unicode="&#xe4;" horiz-adv-x="999" d="M104 281v22q0 165 72 226t258 61h23q149 0 217 -20.5t98 -77.5h2v53q0 67 -1.5 111t-7 85.5t-12.5 65t-23.5 44.5t-34 30.5t-49 17t-64.5 9t-84 1.5h-21q-106 0 -158 -16t-72 -55.5t-20 -120.5v-21h-92v23q0 86 16.5 139t59.5 84t104.5 42t163.5 11h25q64 0 109 -3 t84.5 -13t64.5 -23.5t46 -40t32 -57t18.5 -80t9.5 -104t2 -133.5v-541h-94v113h-4q-32 -68 -101 -96.5t-202 -28.5h-20q-202 0 -273.5 60.5t-71.5 232.5zM201 285q0 -89 21.5 -132t78 -61t172.5 -18h19q164 0 224 41.5t60 167.5v16q0 56 -9 92t-27 60t-55.5 36t-84.5 16.5 t-123 4.5h-18q-82 0 -130.5 -8.5t-78 -33.5t-39.5 -63t-10 -104v-14zM303 1237v156h98v-156h-98zM600 1237v156h98v-156h-98z" />
<glyph unicode="&#xe5;" horiz-adv-x="999" d="M104 281v22q0 165 72 226t258 61h23q149 0 217 -20.5t98 -77.5h2v53q0 67 -1.5 111t-7 85.5t-12.5 65t-23.5 44.5t-34 30.5t-49 17t-64.5 9t-84 1.5h-21q-106 0 -158 -16t-72 -55.5t-20 -120.5v-21h-92v23q0 86 16.5 139t59.5 84t104.5 42t163.5 11h25q64 0 109 -3 t84.5 -13t64.5 -23.5t46 -40t32 -57t18.5 -80t9.5 -104t2 -133.5v-541h-94v113h-4q-32 -68 -101 -96.5t-202 -28.5h-20q-202 0 -273.5 60.5t-71.5 232.5zM201 285q0 -89 21.5 -132t78 -61t172.5 -18h19q164 0 224 41.5t60 167.5v16q0 56 -9 92t-27 60t-55.5 36t-84.5 16.5 t-123 4.5h-18q-82 0 -130.5 -8.5t-78 -33.5t-39.5 -63t-10 -104v-14zM303 1288v12q0 79 43 112.5t148 33.5h12q104 0 146 -33.5t42 -112.5v-12q0 -79 -41.5 -112t-146.5 -33h-12q-105 0 -148 33t-43 112zM362 1288q0 -54 29 -75t103 -21h12q72 0 100.5 21t28.5 75v12 q0 54 -28.5 74.5t-100.5 20.5h-12q-74 0 -103 -20.5t-29 -74.5v-12z" />
<glyph unicode="&#xe6;" horiz-adv-x="1667" d="M104 283v20q0 166 72.5 226.5t257.5 60.5h23q152 0 218 -22t95 -83h4v60q0 66 -1.5 110t-6.5 85t-12.5 65t-22.5 45t-32 31t-46.5 17t-61 9t-79.5 2h-23q-164 0 -213 -35.5t-49 -156.5v-21h-92v21q0 88 17 141t61.5 84t108.5 42t170 11h22q165 0 230.5 -37.5t82.5 -142.5 h2q21 104 96.5 142t235.5 38h31q113 0 181.5 -17.5t111.5 -65.5t58.5 -122t15.5 -196v-105h-689v-75q1 -78 6.5 -132t21.5 -92.5t36 -60.5t57 -35t76 -16.5t102 -3.5h27q114 0 171 21t79 70.5t22 149.5v19h95v-21q0 -186 -80 -255.5t-283 -69.5h-31q-175 0 -253.5 36.5 t-104.5 149.5h-4q-11 -48 -32.5 -81.5t-49.5 -54t-70 -32t-84 -15t-100 -3.5h-22q-106 0 -171 13.5t-105 49t-54.5 89.5t-14.5 143zM201 285q0 -89 21.5 -132t78 -61t172.5 -18h19q164 0 224 41.5t60 167.5v16q0 56 -9 92t-27 60t-55.5 36t-84.5 16.5t-123 4.5h-18 q-82 0 -130.5 -8.5t-78 -33.5t-39.5 -63t-10 -104v-14zM870 567h590v37q0 65 -4 108t-15 79.5t-29 57t-49.5 35t-72.5 20t-100 5.5h-23q-67 0 -108.5 -3.5t-77.5 -17t-54.5 -35t-32.5 -62t-18.5 -92.5t-5.5 -132z" />
<glyph unicode="&#xe7;" horiz-adv-x="1011" d="M106 465v53q0 101 8.5 173.5t29 126.5t50 87.5t77 54t103 28t134.5 7.5h29q215 0 291.5 -67.5t76.5 -255.5v-23h-96v19q0 147 -54 194t-218 47h-27q-65 0 -108.5 -5.5t-79.5 -22t-57 -42.5t-35.5 -71.5t-19.5 -104.5t-5 -145v-53q0 -127 12 -200t49 -117t92 -58t152 -14 h27q167 0 222.5 49.5t55.5 198.5v22h96v-24q0 -193 -80.5 -263.5t-295.5 -70.5h-29q-122 0 -195 19t-121.5 74t-66 145t-17.5 239zM315 -293l242 279l66 -60l-265 -256z" />
<glyph unicode="&#xe8;" horiz-adv-x="1013" d="M106 467v45q0 103 7 175.5t26 128t46 89t73.5 54.5t102.5 28.5t137 7.5h28q117 0 188 -17.5t114.5 -65.5t59 -121.5t15.5 -196.5v-105h-698v-32q0 -85 4.5 -142t18.5 -102t34 -70t56 -41.5t80 -22t110 -5.5h27q87 0 139 10t84 38.5t43.5 73t11.5 119.5v19h96v-21 q0 -186 -82.5 -255.5t-289.5 -69.5h-31q-84 0 -142.5 8t-105 29.5t-74.5 54.5t-46 88.5t-25 126t-7 172.5zM205 569h600v37q0 66 -4 109.5t-15.5 80t-30 56.5t-51.5 34t-75 18.5t-105 4.5h-22q-65 0 -107.5 -4.5t-77.5 -19t-54.5 -36.5t-33 -62t-18.5 -90.5t-6 -127.5z M344 1376l59 68l267 -264l-37 -39z" />
<glyph unicode="&#xe9;" horiz-adv-x="1013" d="M106 467v45q0 103 7 175.5t26 128t46 89t73.5 54.5t102.5 28.5t137 7.5h28q117 0 188 -17.5t114.5 -65.5t59 -121.5t15.5 -196.5v-105h-698v-32q0 -85 4.5 -142t18.5 -102t34 -70t56 -41.5t80 -22t110 -5.5h27q87 0 139 10t84 38.5t43.5 73t11.5 119.5v19h96v-21 q0 -186 -82.5 -255.5t-289.5 -69.5h-31q-84 0 -142.5 8t-105 29.5t-74.5 54.5t-46 88.5t-25 126t-7 172.5zM205 569h600v37q0 66 -4 109.5t-15.5 80t-30 56.5t-51.5 34t-75 18.5t-105 4.5h-22q-65 0 -107.5 -4.5t-77.5 -19t-54.5 -36.5t-33 -62t-18.5 -90.5t-6 -127.5z M354 1178l267 264l59 -68l-289 -235z" />
<glyph unicode="&#xea;" horiz-adv-x="1013" d="M106 467v45q0 103 7 175.5t26 128t46 89t73.5 54.5t102.5 28.5t137 7.5h28q117 0 188 -17.5t114.5 -65.5t59 -121.5t15.5 -196.5v-105h-698v-32q0 -85 4.5 -142t18.5 -102t34 -70t56 -41.5t80 -22t110 -5.5h27q87 0 139 10t84 38.5t43.5 73t11.5 119.5v19h96v-21 q0 -186 -82.5 -255.5t-289.5 -69.5h-31q-84 0 -142.5 8t-105 29.5t-74.5 54.5t-46 88.5t-25 126t-7 172.5zM205 569h600v37q0 66 -4 109.5t-15.5 80t-30 56.5t-51.5 34t-75 18.5t-105 4.5h-22q-65 0 -107.5 -4.5t-77.5 -19t-54.5 -36.5t-33 -62t-18.5 -90.5t-6 -127.5z M272 1206l238 236l240 -236l-43 -45l-197 182l-195 -182z" />
<glyph unicode="&#xeb;" horiz-adv-x="1013" d="M106 467v45q0 103 7 175.5t26 128t46 89t73.5 54.5t102.5 28.5t137 7.5h28q117 0 188 -17.5t114.5 -65.5t59 -121.5t15.5 -196.5v-105h-698v-32q0 -85 4.5 -142t18.5 -102t34 -70t56 -41.5t80 -22t110 -5.5h27q87 0 139 10t84 38.5t43.5 73t11.5 119.5v19h96v-21 q0 -186 -82.5 -255.5t-289.5 -69.5h-31q-84 0 -142.5 8t-105 29.5t-74.5 54.5t-46 88.5t-25 126t-7 172.5zM205 569h600v37q0 66 -4 109.5t-15.5 80t-30 56.5t-51.5 34t-75 18.5t-105 4.5h-22q-65 0 -107.5 -4.5t-77.5 -19t-54.5 -36.5t-33 -62t-18.5 -90.5t-6 -127.5z M315 1237v156h99v-156h-99zM612 1237v156h99v-156h-99z" />
<glyph unicode="&#xec;" horiz-adv-x="385" d="M-74 1376l60 68l266 -264l-37 -39zM143 0v983h99v-983h-99z" />
<glyph unicode="&#xed;" horiz-adv-x="385" d="M143 0v983h99v-983h-99zM150 1178l266 264l59 -68l-289 -235z" />
<glyph unicode="&#xee;" horiz-adv-x="385" d="M-45 1206l238 236l239 -236l-43 -45l-196 182l-195 -182zM143 0v983h99v-983h-99z" />
<glyph unicode="&#xef;" horiz-adv-x="385" d="M8 1237v156h92v-156h-92zM143 0v983h99v-983h-99zM287 1237v156h92v-156h-92z" />
<glyph unicode="&#xf0;" horiz-adv-x="1054" d="M106 467v35q0 187 39.5 289t124 143t236.5 41h26q142 0 209 -40.5t99 -135.5h2q-19 168 -69 266t-152 154l-207 -99l-25 47l172 82q-119 56 -373 84l25 68q284 -24 438 -105l191 95l24 -48l-164 -79q140 -92 190 -266t50 -490v-37q0 -119 -13 -200t-39.5 -137.5 t-76 -87.5t-114.5 -44.5t-162 -13.5h-31q-83 0 -141 8t-104.5 30t-74.5 55.5t-47 88.5t-26 126t-7 171zM203 465q0 -85 4.5 -142t18 -103t34 -72.5t56.5 -44t81.5 -23.5t112.5 -6h27q96 0 151 14t92.5 57.5t50.5 118t13 201.5v86q0 192 -69 265t-243 73h-22q-122 0 -186 -33 t-92.5 -115t-28.5 -239v-37z" />
<glyph unicode="&#xf1;" horiz-adv-x="1073" d="M143 0v983h99v-158h2q32 86 103.5 128t225.5 42h21q106 0 170 -15.5t105 -58.5t56 -111.5t15 -182.5v-627h-100v584q0 73 -3.5 120.5t-15.5 85.5t-29.5 59t-50 35t-72 18.5t-100.5 4.5h-22q-82 0 -135.5 -13t-93.5 -48.5t-58 -99t-18 -162.5v-584h-99zM307 1227 q15 162 133 162q31 0 56.5 -12t62.5 -38q38 -27 58.5 -38t41.5 -11q35 0 54 23.5t26 77.5l56 -11q-18 -163 -133 -163q-33 0 -60.5 13.5t-64.5 41.5q-58 43 -95 43q-33 0 -53 -22.5t-29 -78.5z" />
<glyph unicode="&#xf2;" d="M106 465v53q0 148 17.5 237t65.5 144.5t122.5 75.5t198.5 20h31q124 0 198.5 -20t122 -75.5t65 -144.5t17.5 -237v-53q0 -148 -17.5 -237t-65 -144.5t-122 -75.5t-198.5 -20h-31q-124 0 -198.5 20t-122.5 75.5t-65.5 144.5t-17.5 237zM205 465q0 -128 11.5 -200.5 t48 -117.5t92.5 -59t155 -14h27q99 0 155 14t92.5 59t48 117.5t11.5 200.5v53q0 128 -11.5 200.5t-48 117.5t-92.5 59t-155 14h-27q-99 0 -155 -14t-92.5 -59t-48 -117.5t-11.5 -200.5v-53zM377 1376l59 68l266 -264l-36 -39z" />
<glyph unicode="&#xf3;" d="M106 465v53q0 148 17.5 237t65.5 144.5t122.5 75.5t198.5 20h31q124 0 198.5 -20t122 -75.5t65 -144.5t17.5 -237v-53q0 -148 -17.5 -237t-65 -144.5t-122 -75.5t-198.5 -20h-31q-124 0 -198.5 20t-122.5 75.5t-65.5 144.5t-17.5 237zM205 465q0 -128 11.5 -200.5 t48 -117.5t92.5 -59t155 -14h27q99 0 155 14t92.5 59t48 117.5t11.5 200.5v53q0 128 -11.5 200.5t-48 117.5t-92.5 59t-155 14h-27q-99 0 -155 -14t-92.5 -59t-48 -117.5t-11.5 -200.5v-53zM369 1178l266 264l59 -68l-288 -235z" />
<glyph unicode="&#xf4;" d="M106 465v53q0 148 17.5 237t65.5 144.5t122.5 75.5t198.5 20h31q124 0 198.5 -20t122 -75.5t65 -144.5t17.5 -237v-53q0 -148 -17.5 -237t-65 -144.5t-122 -75.5t-198.5 -20h-31q-124 0 -198.5 20t-122.5 75.5t-65.5 144.5t-17.5 237zM205 465q0 -128 11.5 -200.5 t48 -117.5t92.5 -59t155 -14h27q99 0 155 14t92.5 59t48 117.5t11.5 200.5v53q0 128 -11.5 200.5t-48 117.5t-92.5 59t-155 14h-27q-99 0 -155 -14t-92.5 -59t-48 -117.5t-11.5 -200.5v-53zM287 1206l237 236l240 -236l-43 -45l-197 182l-194 -182z" />
<glyph unicode="&#xf5;" d="M106 465v53q0 148 17.5 237t65.5 144.5t122.5 75.5t198.5 20h31q124 0 198.5 -20t122 -75.5t65 -144.5t17.5 -237v-53q0 -148 -17.5 -237t-65 -144.5t-122 -75.5t-198.5 -20h-31q-124 0 -198.5 20t-122.5 75.5t-65.5 144.5t-17.5 237zM205 465q0 -128 11.5 -200.5 t48 -117.5t92.5 -59t155 -14h27q99 0 155 14t92.5 59t48 117.5t11.5 200.5v53q0 128 -11.5 200.5t-48 117.5t-92.5 59t-155 14h-27q-99 0 -155 -14t-92.5 -59t-48 -117.5t-11.5 -200.5v-53zM285 1227q15 162 133 162q31 0 56.5 -12t62.5 -38q38 -27 58.5 -38t41.5 -11 q35 0 54 23.5t26 77.5l55 -11q-18 -163 -133 -163q-33 0 -60.5 13.5t-64.5 41.5q-58 43 -94 43q-33 0 -53 -22.5t-29 -78.5z" />
<glyph unicode="&#xf6;" d="M106 465v53q0 148 17.5 237t65.5 144.5t122.5 75.5t198.5 20h31q124 0 198.5 -20t122 -75.5t65 -144.5t17.5 -237v-53q0 -148 -17.5 -237t-65 -144.5t-122 -75.5t-198.5 -20h-31q-124 0 -198.5 20t-122.5 75.5t-65.5 144.5t-17.5 237zM205 465q0 -128 11.5 -200.5 t48 -117.5t92.5 -59t155 -14h27q99 0 155 14t92.5 59t48 117.5t11.5 200.5v53q0 128 -11.5 200.5t-48 117.5t-92.5 59t-155 14h-27q-99 0 -155 -14t-92.5 -59t-48 -117.5t-11.5 -200.5v-53zM328 1237v156h98v-156h-98zM625 1237v156h98v-156h-98z" />
<glyph unicode="&#xf7;" d="M123 584v80h805v-80h-805zM444 344q0 34 24 58t56 24q34 0 58 -24t24 -58t-24 -59t-58 -25q-32 0 -56 25t-24 59zM444 905q0 34 24 58t56 24q34 0 58 -24t24 -58t-24 -58t-58 -24q-32 0 -56 24t-24 58z" />
<glyph unicode="&#xf8;" d="M106 465v53q0 148 17.5 237t65.5 144.5t122.5 75.5t198.5 20h31q201 0 284 -61l64 82l57 -43l-69 -92q67 -98 67 -363v-53q0 -148 -17.5 -237t-65 -144.5t-122 -75.5t-198.5 -20h-31q-186 0 -270 51l-74 -98l-57 43l77 102q-43 53 -61.5 143t-18.5 236zM205 465 q0 -220 43 -297l520 688q-61 53 -229 53h-27q-99 0 -155 -14t-92.5 -59t-48 -117.5t-11.5 -200.5v-53zM297 115q58 -41 215 -41h27q99 0 155 14t92.5 59t48 117.5t11.5 200.5v53q0 194 -35 277z" />
<glyph unicode="&#xf9;" horiz-adv-x="1064" d="M127 362v621h98v-577q0 -72 4.5 -121.5t16.5 -88.5t30.5 -61t50.5 -36.5t71.5 -19.5t97.5 -5h20q83 0 137 13t94.5 48t58 98.5t17.5 163.5v586h99v-983h-99v162h-2q-21 -57 -54.5 -93t-101.5 -58.5t-173 -22.5h-21q-104 0 -168 16.5t-104.5 61t-56 114t-15.5 182.5z M383 1376l59 68l267 -264l-37 -39z" />
<glyph unicode="&#xfa;" horiz-adv-x="1064" d="M127 362v621h98v-577q0 -72 4.5 -121.5t16.5 -88.5t30.5 -61t50.5 -36.5t71.5 -19.5t97.5 -5h20q83 0 137 13t94.5 48t58 98.5t17.5 163.5v586h99v-983h-99v162h-2q-21 -57 -54.5 -93t-101.5 -58.5t-173 -22.5h-21q-104 0 -168 16.5t-104.5 61t-56 114t-15.5 182.5z M387 1178l266 264l60 -68l-289 -235z" />
<glyph unicode="&#xfb;" horiz-adv-x="1064" d="M127 362v621h98v-577q0 -72 4.5 -121.5t16.5 -88.5t30.5 -61t50.5 -36.5t71.5 -19.5t97.5 -5h20q83 0 137 13t94.5 48t58 98.5t17.5 163.5v586h99v-983h-99v162h-2q-21 -57 -54.5 -93t-101.5 -58.5t-173 -22.5h-21q-104 0 -168 16.5t-104.5 61t-56 114t-15.5 182.5z M295 1206l237 236l240 -236l-43 -45l-197 182l-194 -182z" />
<glyph unicode="&#xfc;" horiz-adv-x="1064" d="M127 362v621h98v-577q0 -72 4.5 -121.5t16.5 -88.5t30.5 -61t50.5 -36.5t71.5 -19.5t97.5 -5h20q83 0 137 13t94.5 48t58 98.5t17.5 163.5v586h99v-983h-99v162h-2q-21 -57 -54.5 -93t-101.5 -58.5t-173 -22.5h-21q-104 0 -168 16.5t-104.5 61t-56 114t-15.5 182.5z M338 1237v156h98v-156h-98zM635 1237v156h98v-156h-98z" />
<glyph unicode="&#xfd;" horiz-adv-x="894" d="M18 983h105l340 -897h4l303 897h107l-304 -872q-44 -126 -79 -207t-66.5 -134t-67.5 -79.5t-71 -35.5t-88 -9q-63 0 -92 2v84q20 -2 79 -2q45 0 74.5 9.5t60 39.5t58 86t61.5 149h-53zM348 1178l266 264l60 -68l-289 -235z" />
<glyph unicode="&#xfe;" horiz-adv-x="1067" d="M143 -348v1741h99v-551h4q30 84 101 118.5t222 34.5h25q144 0 220 -39t111.5 -142t35.5 -300v-41q0 -148 -17.5 -240t-62.5 -148t-112.5 -76.5t-176.5 -20.5h-25q-145 0 -217 33.5t-104 119.5h-4v-489h-99zM240 428q0 -109 13 -174.5t49 -106.5t92 -56t149 -15h26 q74 0 121.5 9.5t83 33t53.5 69.5t26.5 111.5t8.5 167.5v51q0 101 -8.5 166.5t-26.5 111.5t-53.5 69.5t-83 33.5t-121.5 10h-26q-94 0 -148.5 -13t-91.5 -52t-50 -106t-13 -181v-129z" />
<glyph unicode="&#xff;" horiz-adv-x="894" d="M18 983h105l340 -897h4l303 897h107l-304 -872q-44 -126 -79 -207t-66.5 -134t-67.5 -79.5t-71 -35.5t-88 -9q-63 0 -92 2v84q20 -2 79 -2q45 0 74.5 9.5t60 39.5t58 86t61.5 149h-53zM264 1237v156h98v-156h-98zM561 1237v156h98v-156h-98z" />
<glyph unicode="&#x152;" horiz-adv-x="2093" d="M117 653v88q0 145 9 245t34.5 177t62 121.5t99.5 73t139.5 38t189.5 9.5h37q228 0 324 -39.5t133 -146.5h4v174h858v-90h-760v-535h721v-88h-721v-590h764v-90h-862v170h-4q-38 -105 -137.5 -143.5t-317.5 -38.5h-37q-115 0 -191.5 9.5t-140.5 37.5t-100 72.5t-61 121.5 t-34 177t-9 247zM223 649q0 -130 6.5 -215t26.5 -152.5t48 -103.5t81.5 -60t117.5 -31t163 -7h36q99 0 163 7t117.5 31t81.5 60t48 103.5t26.5 152.5t6.5 215v94q0 130 -6.5 215t-26 152.5t-48.5 104t-82 60.5t-117 31t-163 7h-36q-99 0 -163 -7t-117 -31t-82 -60.5 t-48.5 -104t-26 -152.5t-6.5 -215v-94z" />
<glyph unicode="&#x153;" horiz-adv-x="1744" d="M106 467v51q0 151 18 241t66.5 144.5t121.5 73t196 18.5h29q170 0 253.5 -41t104.5 -143h2q23 102 103 143t237 41h29q91 0 152 -12t104.5 -37.5t67 -74t34 -114t10.5 -163.5v-105h-690v-28q0 -86 4.5 -143t17.5 -103t33 -71t55.5 -42t79.5 -22.5t111 -5.5h27 q115 0 173 22.5t79.5 72t21.5 146.5v19h94v-21q0 -98 -18 -160t-63 -99t-112 -51.5t-173 -14.5h-31q-169 0 -245.5 39.5t-100.5 144.5h-2q-23 -102 -106.5 -143t-251.5 -41h-29q-82 0 -140 8t-105 29.5t-75.5 55t-47.5 88.5t-26.5 126.5t-7.5 171.5zM205 465 q0 -128 11.5 -200.5t48 -117.5t92.5 -59t155 -14h27q99 0 155 14t92.5 59t48 117.5t11.5 200.5v53q0 128 -11.5 200.5t-48 117.5t-92.5 59t-155 14h-27q-99 0 -155 -14t-92.5 -59t-48 -117.5t-11.5 -200.5v-53zM944 569h596v35q0 97 -10 152.5t-41.5 91.5t-82.5 48.5 t-140 12.5h-23q-64 0 -105.5 -4t-77.5 -17.5t-56 -36t-35 -61.5t-20 -91.5t-5 -129.5z" />
<glyph unicode="&#x178;" horiz-adv-x="1196" d="M18 1393h119l461 -787h4l457 787h119l-529 -889v-504h-104v504zM403 1552v156h99v-156h-99zM702 1552v156h99v-156h-99z" />
<glyph unicode="&#x2c6;" horiz-adv-x="749" d="M139 1206l238 236l239 -236l-43 -45l-196 182l-195 -182z" />
<glyph unicode="&#x2dc;" horiz-adv-x="749" d="M135 1227q15 162 133 162q31 0 56.5 -12t62.5 -38q38 -27 58.5 -38t41.5 -11q35 0 54 23.5t26 77.5l56 -11q-18 -163 -134 -163q-23 0 -45.5 8t-38 18t-40.5 29q-58 43 -95 43q-33 0 -53 -22.5t-29 -78.5z" />
<glyph unicode="&#x2000;" horiz-adv-x="893" />
<glyph unicode="&#x2001;" horiz-adv-x="1786" />
<glyph unicode="&#x2002;" horiz-adv-x="893" />
<glyph unicode="&#x2003;" horiz-adv-x="1786" />
<glyph unicode="&#x2004;" horiz-adv-x="595" />
<glyph unicode="&#x2005;" horiz-adv-x="446" />
<glyph unicode="&#x2006;" horiz-adv-x="297" />
<glyph unicode="&#x2007;" horiz-adv-x="297" />
<glyph unicode="&#x2008;" horiz-adv-x="223" />
<glyph unicode="&#x2009;" horiz-adv-x="357" />
<glyph unicode="&#x200a;" horiz-adv-x="99" />
<glyph unicode="&#x2010;" horiz-adv-x="731" d="M121 471v90h489v-90h-489z" />
<glyph unicode="&#x2011;" horiz-adv-x="731" d="M121 471v90h489v-90h-489z" />
<glyph unicode="&#x2012;" horiz-adv-x="731" d="M121 471v90h489v-90h-489z" />
<glyph unicode="&#x2013;" horiz-adv-x="1083" d="M0 481v74h1083v-74h-1083z" />
<glyph unicode="&#x2014;" horiz-adv-x="1681" d="M63 481v74h1555v-74h-1555z" />
<glyph unicode="&#x2018;" horiz-adv-x="356" d="M125 987v176q0 109 25 162.5t102 67.5v-60q-37 -12 -49.5 -47.5t-12.5 -114.5v-14h39v-170h-104z" />
<glyph unicode="&#x2019;" horiz-adv-x="356" d="M104 987v60q37 12 49.5 47.5t12.5 113.5v15h-39v170h104v-176q0 -108 -25 -161t-102 -69z" />
<glyph unicode="&#x201a;" horiz-adv-x="356" d="M104 -176q37 12 49.5 47.5t12.5 114.5v14h-39v170h104v-176q0 -108 -25 -161t-102 -69v60z" />
<glyph unicode="&#x201c;" horiz-adv-x="579" d="M125 987v176q0 109 25 162.5t102 67.5v-60q-37 -12 -49.5 -47.5t-12.5 -114.5v-14h39v-170h-104zM348 987v176q0 109 25 162.5t102 67.5v-60q-37 -11 -49 -47t-12 -115v-14h39v-170h-105z" />
<glyph unicode="&#x201d;" horiz-adv-x="581" d="M104 987v60q37 12 49.5 47.5t12.5 113.5v15h-39v170h104v-176q0 -108 -25 -161t-102 -69zM330 987v60q37 12 49 47t12 114v15h-39v170h105v-176q0 -108 -25 -161t-102 -69z" />
<glyph unicode="&#x201e;" horiz-adv-x="579" d="M104 -176q37 12 49.5 47.5t12.5 114.5v14h-39v170h104v-176q0 -108 -25 -161t-102 -69v60zM328 -176q37 11 49 47t12 115v14h-39v170h105v-176q0 -108 -25 -161t-102 -69v60z" />
<glyph unicode="&#x2022;" horiz-adv-x="815" d="M201 696q0 85 60.5 145t146.5 60q85 0 145.5 -60t60.5 -145q0 -86 -60.5 -146.5t-145.5 -60.5q-86 0 -146.5 60.5t-60.5 146.5z" />
<glyph unicode="&#x2026;" horiz-adv-x="1087" d="M127 0v174h109v-174h-109zM489 0v174h109v-174h-109zM852 0v174h109v-174h-109z" />
<glyph unicode="&#x202f;" horiz-adv-x="357" />
<glyph unicode="&#x2039;" horiz-adv-x="477" d="M90 555l225 412l72 -33l-209 -379l209 -377l-72 -33z" />
<glyph unicode="&#x203a;" horiz-adv-x="475" d="M90 178l209 377l-209 379l70 33l225 -412l-225 -410z" />
<glyph unicode="&#x205f;" horiz-adv-x="446" />
<glyph unicode="&#x20ac;" horiz-adv-x="1331" d="M102 561v60h125v182h-125v59h127q2 119 11.5 200t33.5 144.5t58 99.5t93.5 59.5t131.5 31.5t180 8h29q133 0 214 -15.5t130 -58t66.5 -106t17.5 -168.5v-27h-100v37q0 76 -12.5 121t-49.5 75t-99.5 41t-166.5 11h-27q-67 0 -112.5 -2.5t-89.5 -11t-71 -21.5t-51.5 -38 t-37.5 -56.5t-23.5 -80t-14.5 -106t-5 -137.5h610v-59h-610v-182h610v-60h-610q1 -86 4.5 -147t13.5 -113.5t22 -85.5t37 -59.5t51 -40t71 -22t90.5 -11t115.5 -2.5h27q88 0 145 7.5t98.5 24t62.5 49t30.5 76t9.5 111.5v33h100v-35q0 -87 -13 -145.5t-42 -101.5t-82.5 -66.5 t-128 -34t-184.5 -10.5h-25q-112 0 -184.5 7.5t-133 32t-94 62t-57 105t-31.5 152.5t-10 214h-125z" />
<glyph unicode="&#x2122;" horiz-adv-x="1570" d="M74 1329v64h538v-64h-235v-612h-74v612h-229zM705 717v676h122l246 -600h4l248 600h119v-676h-72v602h-8l-256 -602h-70l-252 604h-10v-604h-71z" />
<glyph unicode="&#x25fc;" horiz-adv-x="983" d="M0 0v983h983v-983h-983z" />
</font>
</defs>
</svg>
